<?xml version="1.0" encoding="iso-8859-1"?>
<!-- Uploaded to: SVG Repo, www.svgrepo.com, Generator: SVG Repo Mixer Tools -->
<svg version="1.1" id="Layer_1" xmlns="http://www.w3.org/2000/svg" xmlns:xlink="http://www.w3.org/1999/xlink" 
	 viewBox="0 0 512 512" xml:space="preserve">
<path style="fill:#FFD159;" d="M357.275,321.401V512h33.758c18.567,0,33.758-15.191,33.758-33.758V321.401H357.275z"/>
<path style="fill:#FFEAB2;" d="M87.209,298.895v179.346c0,18.567,15.191,33.758,33.758,33.758h236.308
	c18.567,0,33.758-15.191,33.758-33.758v-45.011C391.033,433.231,95.761,305.512,87.209,298.895z"/>
<polygon style="fill:#AB5D4A;" points="120.967,331.956 120.967,433.231 154.725,433.231 177.231,309.451 "/>
<polygon style="fill:#792A18;" points="334.769,309.451 357.275,433.231 391.033,433.231 391.033,331.956 "/>
<path style="fill:#FFEAB2;" d="M258.003,0.011l111.155,331.945h24.689c11.647,0,22.393-3.938,30.945-10.555
	c11.973-9.261,19.692-23.777,19.692-40.082v-92.835C444.484,85.048,361.179,1.08,258.003,0.011z"/>
<path style="fill:#FFF3D4;" d="M258.003,0.011C257.339,0,256.664,0,256,0C151.901,0,67.516,84.384,67.516,188.484v92.835
	c0,16.305,7.719,30.821,19.692,40.071c8.552,6.628,19.298,10.566,30.945,10.566h36.571v45.011L256,410.725l101.275-33.758v-45.011
	h11.883c22.956,0,41.568-22.674,41.568-50.637v-92.835C410.725,85.195,342.534,1.317,258.003,0.011z"/>
<g>
	<path style="fill:#792A18;" d="M294.462,309.619c0.585,1.71,0.923,3.545,0.923,5.458c0,9.317-7.562,16.879-16.879,16.879H256
		l-22.505-38.822L256,244.185c9.88,0,18.252,6.369,21.279,15.225L294.462,309.619z"/>
	<path style="fill:#792A18;" d="M174.418,133.908v112.527c31.069,0,56.264-25.195,56.264-56.264S205.486,133.908,174.418,133.908z"
		/>
	<path style="fill:#792A18;" d="M337.582,133.908v112.527c31.069,0,56.264-25.195,56.264-56.264S368.651,133.908,337.582,133.908z"
		/>
</g>
<g>
	<path style="fill:#AB5D4A;" d="M174.418,133.908c12.434,0,22.505,25.195,22.505,56.264s-10.071,56.264-22.505,56.264
		c-31.069,0-56.264-25.195-56.264-56.264S143.349,133.908,174.418,133.908z"/>
	<path style="fill:#AB5D4A;" d="M337.582,133.908c12.434,0,22.505,25.195,22.505,56.264s-10.071,56.264-22.505,56.264
		c-31.069,0-56.264-25.195-56.264-56.264S306.514,133.908,337.582,133.908z"/>
	<path style="fill:#AB5D4A;" d="M256,244.185v87.771h-22.505c-9.317,0-16.879-7.562-16.879-16.879c0-1.913,0.338-3.747,0.923-5.458
		l17.183-50.21C237.748,250.554,246.12,244.185,256,244.185z"/>
</g>
<polygon style="fill:#FFD159;" points="357.275,376.967 357.275,405.099 323.517,416.352 312.264,396.659 323.517,376.967 "/>
<polygon style="fill:#FFE08F;" points="323.517,376.967 323.517,405.099 289.758,416.352 278.505,396.659 289.758,376.967 "/>
<polygon style="fill:#FFD159;" points="289.758,376.967 289.758,405.099 256,416.352 244.747,396.659 256,376.967 "/>
<polygon style="fill:#FFE08F;" points="256,376.967 256,405.099 222.242,416.352 210.989,396.659 222.242,376.967 "/>
<polygon style="fill:#FFD159;" points="222.242,376.967 222.242,405.099 188.484,416.352 177.231,396.659 188.484,376.967 "/>
<polygon style="fill:#FFE08F;" points="188.484,376.967 188.484,405.099 174.418,414.664 154.725,405.099 154.725,376.967 "/>
<polygon style="fill:#F5AC51;" points="357.275,405.099 357.275,433.231 323.517,433.231 312.264,419.165 323.517,405.099 "/>
<polygon style="fill:#FFD159;" points="323.517,405.099 323.517,433.231 289.758,433.231 278.505,419.165 289.758,405.099 "/>
<polygon style="fill:#F5AC51;" points="289.758,405.099 289.758,433.231 256,433.231 244.747,419.165 256,405.099 "/>
<polygon style="fill:#FFD159;" points="256,405.099 256,433.231 222.242,433.231 210.989,419.165 222.242,405.099 "/>
<polygon style="fill:#F5AC51;" points="222.242,405.099 222.242,433.231 188.484,433.231 177.231,419.165 188.484,405.099 "/>
<rect x="154.725" y="405.099" style="fill:#FFD159;" width="33.758" height="28.132"/>
</svg>