<?xml version="1.0" encoding="UTF-8" standalone="no"?>
<!-- Uploaded to: SVG Repo, www.svgrepo.com, Generator: SVG Repo Mixer Tools -->

<svg
   fill="#000000"
   version="1.1"
   id="Capa_1"
   width="800px"
   height="800px"
   viewBox="0 0 155.884 155.883"
   xml:space="preserve"
   sodipodi:docname="spleen-human-body-part-svgrepo-com.svg"
   inkscape:version="1.1.2 (0a00cf5339, 2022-02-04)"
   xmlns:inkscape="http://www.inkscape.org/namespaces/inkscape"
   xmlns:sodipodi="http://sodipodi.sourceforge.net/DTD/sodipodi-0.dtd"
   xmlns="http://www.w3.org/2000/svg"
   xmlns:svg="http://www.w3.org/2000/svg"><defs
   id="defs9" /><sodipodi:namedview
   id="namedview7"
   pagecolor="#ffffff"
   bordercolor="#666666"
   borderopacity="1.0"
   inkscape:pageshadow="2"
   inkscape:pageopacity="0.0"
   inkscape:pagecheckerboard="0"
   showgrid="false"
   inkscape:zoom="0.75041707"
   inkscape:cx="-130.59404"
   inkscape:cy="321.15474"
   inkscape:window-width="2560"
   inkscape:window-height="1008"
   inkscape:window-x="0"
   inkscape:window-y="35"
   inkscape:window-maximized="1"
   inkscape:current-layer="g4" />
<g
   id="g4"
   style="stroke-width:0.33748886;stroke-miterlimit:4;stroke-dasharray:none">
	<path
   d="M 155.365,54.933 C 151.413,29.304 118.86,11.938 78.027,14.867 37.485,17.747 4.132,43.255 0.445,74.187 -1.074,86.938 1.3,96.96 7.505,103.945 c 5.748,6.473 14.477,9.889 25.246,9.889 4.354,0 8.966,-0.651 13.576,-1.747 -1.2,5.456 -5.015,15.484 -17.403,21.251 -2.095,0.975 -3.014,3.471 -2.034,5.565 0.709,1.534 2.213,2.436 3.796,2.436 0.6,0 1.197,-0.134 1.772,-0.396 20.064,-9.341 22.49,-27.773 22.783,-31.682 0.63,-0.25 1.272,-0.433 1.896,-0.701 7.14,-3.068 12.179,-7.764 16.618,-11.904 4.783,-4.463 8.281,-7.958 12.762,-7.38 33.323,3.873 53.947,0.402 63.52,-10.747 5.048,-5.87 6.838,-13.811 5.328,-23.596 z"
   id="path2"
   style="fill:#800000;stroke:#800000;stroke-width:0.337489;stroke-miterlimit:4;stroke-dasharray:none;stroke-opacity:1"
   sodipodi:nodetypes="ccccscccsccccccc" />
</g>
</svg>
