<?xml version="1.0" encoding="UTF-8" standalone="no"?>
<!-- Uploaded to: SVG Repo, www.svgrepo.com, Generator: SVG Repo Mixer Tools -->

<svg
   width="800px"
   height="800px"
   viewBox="0 0 512 512"
   version="1.1"
   id="svg4"
   sodipodi:docname="antibody-svgrepo-com.svg"
   inkscape:version="1.1.2 (0a00cf5339, 2022-02-04)"
   xmlns:inkscape="http://www.inkscape.org/namespaces/inkscape"
   xmlns:sodipodi="http://sodipodi.sourceforge.net/DTD/sodipodi-0.dtd"
   xmlns="http://www.w3.org/2000/svg"
   xmlns:svg="http://www.w3.org/2000/svg">
  <defs
     id="defs8" />
  <sodipodi:namedview
     id="namedview6"
     pagecolor="#ffffff"
     bordercolor="#666666"
     borderopacity="1.0"
     inkscape:pageshadow="2"
     inkscape:pageopacity="0.0"
     inkscape:pagecheckerboard="0"
     showgrid="false"
     inkscape:zoom="1.02625"
     inkscape:cx="400"
     inkscape:cy="400.48721"
     inkscape:window-width="2560"
     inkscape:window-height="1006"
     inkscape:window-x="0"
     inkscape:window-y="37"
     inkscape:window-maximized="1"
     inkscape:current-layer="svg4" />
  <path
     fill="#000000"
     d="M95.812 29.781a18.002 18.002 0 0 0-12.54 30.91l81.636 81.637-14.543 14.543-73.637-73.637a18.002 18.002 0 0 0-12.916-5.453 18.002 18.002 0 0 0-12.54 30.91l96 96a18.002 18.002 0 1 0 25.456-25.457l-9.636-9.637 14.543-14.543L206 183.418v280.545a18.002 18.002 0 1 0 36 0v-199h28v199a18.002 18.002 0 1 0 36 0V183.418l28.365-28.364 14.543 14.543-9.637 9.637a18.002 18.002 0 1 0 25.457 25.457l96-96a18.002 18.002 0 0 0-13.082-30.902 18.002 18.002 0 0 0-12.375 5.445l-73.636 73.637-14.543-14.543 81.636-81.637a18.002 18.002 0 0 0-13.082-30.902 18.002 18.002 0 0 0-12.375 5.445L270 168.508v78.455h-28v-78.455L108.728 35.234a18.002 18.002 0 0 0-12.916-5.453z"
     id="path2"
     style="fill:#cccccc" />
</svg>
