<?xml version="1.0" encoding="UTF-8" standalone="no"?>
<!-- Uploaded to: SVG Repo, www.svgrepo.com, Generator: SVG Repo Mixer Tools -->

<svg
   fill="#000000"
   width="800px"
   height="800px"
   viewBox="0 0 16 16"
   data-name="Layer 1"
   id="Layer_1"
   version="1.1"
   sodipodi:docname="emoji-emoticon-saliva-svgrepo-com.svg"
   inkscape:version="1.1.2 (0a00cf5339, 2022-02-04)"
   xmlns:inkscape="http://www.inkscape.org/namespaces/inkscape"
   xmlns:sodipodi="http://sodipodi.sourceforge.net/DTD/sodipodi-0.dtd"
   xmlns="http://www.w3.org/2000/svg"
   xmlns:svg="http://www.w3.org/2000/svg">
  <defs
     id="defs15" />
  <sodipodi:namedview
     id="namedview13"
     pagecolor="#ffffff"
     bordercolor="#666666"
     borderopacity="1.0"
     inkscape:pageshadow="2"
     inkscape:pageopacity="0.0"
     inkscape:pagecheckerboard="0"
     showgrid="false"
     inkscape:zoom="1.02625"
     inkscape:cx="386.3581"
     inkscape:cy="400.48721"
     inkscape:window-width="2560"
     inkscape:window-height="1006"
     inkscape:window-x="0"
     inkscape:window-y="37"
     inkscape:window-maximized="1"
     inkscape:current-layer="Layer_1" />
  <title
     id="title2" />
  <path
     d="M8,1A7,7,0,1,1,1,8,7.008,7.008,0,0,1,8,1M8,0a8,8,0,1,0,8,8A8,8,0,0,0,8,0Z"
     id="path4"
     style="fill:#e6e6e6" />
  <rect
     height="1"
     width="3"
     x="9"
     y="5"
     id="rect6"
     style="fill:#e6e6e6" />
  <rect
     height="1"
     width="3"
     x="4"
     y="5"
     id="rect8"
     style="fill:#e6e6e6" />
  <path
     d="M11.275,7.5H4.725A1.726,1.726,0,0,0,3,9.225v.55A1.726,1.726,0,0,0,4.725,11.5H8.218v.95a1.164,1.164,0,0,0,2.327,0V11.5h.73A1.726,1.726,0,0,0,13,9.775v-.55A1.726,1.726,0,0,0,11.275,7.5Zm-1.505,3v1.95a.388.388,0,0,1-.776,0V10.5H4.725A.726.726,0,0,1,4,9.775v-.55A.726.726,0,0,1,4.725,8.5h6.55A.726.726,0,0,1,12,9.225v.55a.726.726,0,0,1-.725.725H9.77Z"
     id="path10"
     style="fill:#e6e6e6" />
</svg>
