<?xml version="1.0" ?><!-- Uploaded to: SVG Repo, www.svgrepo.com, Generator: SVG Repo Mixer Tools -->
<svg fill="#000000" width="800px" height="800px" viewBox="0 0 16 16" data-name="Layer 1" id="Layer_1" xmlns="http://www.w3.org/2000/svg"><title/><path d="M8,1A7,7,0,1,1,1,8,7.008,7.008,0,0,1,8,1M8,0a8,8,0,1,0,8,8A8,8,0,0,0,8,0Z"/><rect height="1" width="3" x="9" y="5"/><rect height="1" width="3" x="4" y="5"/><path d="M11.275,7.5H4.725A1.726,1.726,0,0,0,3,9.225v.55A1.726,1.726,0,0,0,4.725,11.5H8.218v.95a1.164,1.164,0,0,0,2.327,0V11.5h.73A1.726,1.726,0,0,0,13,9.775v-.55A1.726,1.726,0,0,0,11.275,7.5Zm-1.505,3v1.95a.388.388,0,0,1-.776,0V10.5H4.725A.726.726,0,0,1,4,9.775v-.55A.726.726,0,0,1,4.725,8.5h6.55A.726.726,0,0,1,12,9.225v.55a.726.726,0,0,1-.725.725H9.77Z"/></svg>