<?xml version="1.0" encoding="utf-8"?>
<!-- Uploaded to: SVG Repo, www.svgrepo.com, Generator: SVG Repo Mixer Tools -->
<svg width="800px" height="800px" viewBox="-56.96 0 361.23 361.23" xmlns="http://www.w3.org/2000/svg"><defs><style>.a{fill:#ffffff;}.b{fill:#211715;}.c{fill:#7a7473;}.d{fill:#66bd6f;}</style></defs><path class="a" d="M164.865,194.136c-1-.4-3.787-1.666-4.155-1.8-5.552-2-5.333-5.575-6.033-9.569a76.921,76.921,0,0,1-1.218-15.208c12.589-7.846,22.3-24.29,24.149-29.307.31-.942.943-2.717,1.5-4.823l1.175-.182a14.75,14.75,0,0,0,6.859-3.092,22.254,22.254,0,0,0,5.753-7.55,35.005,35.005,0,0,0,3.569-18.554,11.68,11.68,0,0,0-1.223-4.7,8.261,8.261,0,0,0-5.94-3.949,8.749,8.749,0,0,0-7,2.048s2-48.03-57.765-48.03c-50,0-59.035,33.4-59.626,44.549a32.207,32.207,0,0,0-.029,3.481,8.749,8.749,0,0,0-7-2.048,8.259,8.259,0,0,0-5.939,3.949,11.648,11.648,0,0,0-1.223,4.7,34.986,34.986,0,0,0,3.569,18.554,22.238,22.238,0,0,0,5.752,7.55,14.75,14.75,0,0,0,6.859,3.092s.845.13,2.236.341a59.509,59.509,0,0,0,11.345,22.146,52.621,52.621,0,0,0,15.3,12.89,77.567,77.567,0,0,1-1.234,14.143c-.7,3.994-.481,7.564-6.033,9.569-.368.133-3,1.3-4.155,1.8,0,0-6.7,29.921,40.712,31.106S164.865,194.136,164.865,194.136Z"/><path class="b" d="M175.294,137.615c-.057.152-.119.3-.177.455-.1.266.22-.47-.031.069-.2.423-.389.848-.6,1.267-.5,1.015-1.04,2.01-1.6,2.993a83.135,83.135,0,0,1-4.718,7.3,61.48,61.48,0,0,1-14.147,14.613,28.516,28.516,0,0,1-9.98,4.674c-3.01.689-1.736,5.318,1.276,4.628,7.3-1.673,13.6-6.429,18.78-11.662a83.481,83.481,0,0,0,12.461-16.317,43.193,43.193,0,0,0,3.362-6.745,2.419,2.419,0,0,0-1.676-2.952,2.451,2.451,0,0,0-2.952,1.676Z"/><path class="c" d="M107.6,3.062c-13.081,1.492-26.542,6.2-37.453,17.181L75.365,24.7c-8.9,5.5-15.892,16.155-19.1,25.587-3.78,11.1-4.908,26.889-.421,45.547l.033.137a8.21,8.21,0,0,1,2.01-.568,8.749,8.749,0,0,1,7,2.048l7.5-4.468.617-.368c15.864-14.845,24.708-20.991,38.927-32.161.086.99,3.256,8.915,4,9.217.914.372,10.079-5.294,17.537-9.9l12.59,1.532c5.783,1.265,11.209,4.407,16.1,8.611,8.662,7.454,15.628,18.247,19.876,27.849a8.565,8.565,0,0,1,7.277-2.356,8.256,8.256,0,0,1,1.525.379c4.35-11.175,4.987-27.364-.506-42.723-3.863-10.8-13.072-22.091-20.332-25.268l-8.572-6.109C153.008,10.159,138.987,3.094,121.04,2.545A93.623,93.623,0,0,0,107.6,3.062Z"/><path class="b" d="M184,99.149a6.263,6.263,0,0,1,8.794.814c1.143,1.507,1.276,3.6,1.361,5.416a32,32,0,0,1-.279,6.21c-1.141,7.683-5.1,17.24-13.444,19.2-3.006.7-1.733,5.335,1.276,4.628,8.521-2,13.476-10.113,15.785-18a36.6,36.6,0,0,0,1.409-12.925c-.31-4.125-1.609-7.945-5.382-10.112a11.25,11.25,0,0,0-12.914,1.373,2.421,2.421,0,0,0,0,3.394,2.449,2.449,0,0,0,3.394,0Z"/><path class="b" d="M66.582,95.755a11.21,11.21,0,0,0-11.508-2.037c-4.138,1.689-6.146,5.234-6.666,9.528a35.805,35.805,0,0,0,6.138,24.465c2.852,3.935,6.837,7.018,11.718,7.851a2.471,2.471,0,0,0,2.953-1.676,2.419,2.419,0,0,0-1.677-2.952c-8.722-1.49-12.856-11.082-14.158-18.907a31.489,31.489,0,0,1-.358-6.427c.074-1.836.179-3.931,1.272-5.489a6.232,6.232,0,0,1,8.892-.962,2.462,2.462,0,0,0,3.394,0,2.421,2.421,0,0,0,0-3.394Z"/><path class="b" d="M66.411,132.7c4.251,16.2,14.682,31.819,30.243,39.034a40.57,40.57,0,0,0,13.021,3.582,2.416,2.416,0,0,0,2.4-2.4,2.454,2.454,0,0,0-2.4-2.4c-15.347-1.583-27.982-14.05-34.422-27.391a64.568,64.568,0,0,1-4.214-11.7c-.784-2.985-5.415-1.719-4.628,1.276Z"/><path class="b" d="M168.782,29.865a27.954,27.954,0,0,1,8.9,7.008,54.318,54.318,0,0,1,7.974,11.511c4.645,8.919,6.483,19.458,6.18,29.451a54.343,54.343,0,0,1-2.551,15.158c-.956,2.945,3.677,4.206,4.628,1.276,3.225-9.934,3.431-20.761,1.606-30.986A59.713,59.713,0,0,0,182.369,34.95c-3.07-3.635-6.768-7.257-11.165-9.23a2.474,2.474,0,0,0-3.283.861,2.419,2.419,0,0,0,.861,3.284Z"/><path class="b" d="M79.609,19.985C69.152,23.9,61.391,33.346,56.633,43.159c-4.65,9.591-6.3,20.315-6.092,30.91a105.753,105.753,0,0,0,2.986,22.4c.715,3,5.345,1.732,4.628-1.276C53.3,74.8,53.655,51.432,67.777,34.63c3.541-4.212,7.889-8.063,13.108-10.016a2.467,2.467,0,0,0,1.677-2.952,2.42,2.42,0,0,0-2.953-1.677Z"/><path class="b" d="M163.494,20.472C155.517,9.635,143.373,3.107,130.187,1.018c-13.413-2.125-28.13-.98-40.824,3.965A60.556,60.556,0,0,0,68.446,18.546c-2.189,2.186,1.2,5.581,3.394,3.394,9.478-9.469,22.021-14.823,35.236-16.416,12.542-1.513,26.034-.8,37.467,5.017A41.87,41.87,0,0,1,159.349,22.9a2.473,2.473,0,0,0,3.284.861,2.419,2.419,0,0,0,.861-3.284Z"/><path class="b" d="M136.035,55.366c-5.007,3.073-9.972,6.219-15.048,9.177-1.014.59-2.033,1.174-3.067,1.729-.405.218-.812.432-1.225.635-.16.079-.321.155-.482.231-.294.14-.489.168-.042.026a1.5,1.5,0,0,0-.379.134c-.146.18-.418-.159.033.024a8.081,8.081,0,0,1,1.678.556c.127.1.3.492.043.018-.437-.805-.843-1.617-1.216-2.455-.438-.987-.841-1.975-1.289-3.164-.174-.464-.346-.928-.5-1.4-.1-.294-.347-1.5-.207-.424a2.44,2.44,0,0,0-4.1-1.7c-10,7.848-20.177,15.447-29.742,23.827q-4.981,4.365-9.8,8.91c-2.258,2.118,1.141,5.507,3.394,3.394,9.786-9.18,20.086-17.663,30.7-25.863q4.431-3.425,8.846-6.874l-4.1-1.7a25.04,25.04,0,0,0,2.184,6.325c.762,1.794,1.682,4.923,3.935,5.261,1.773.266,3.744-1.1,5.224-1.914,2.7-1.483,5.335-3.088,7.965-4.693,3.214-1.961,6.408-3.954,9.617-5.923,2.629-1.613.22-5.766-2.422-4.145Z"/><path class="b" d="M145.419,63.614c8.3,1.88,15.155,7.381,20.723,13.6a83.4,83.4,0,0,1,13.382,20.8,2.419,2.419,0,0,0,3.284.861,2.455,2.455,0,0,0,.861-3.283,87.156,87.156,0,0,0-14.417-22.083c-6.036-6.66-13.644-12.5-22.557-14.52-3.008-.682-4.293,3.945-1.276,4.628Z"/><path class="b" d="M93.376,170.354a74.6,74.6,0,0,1-.807,9.719,52.474,52.474,0,0,1-1.122,6.431,5.143,5.143,0,0,1-.783,1.684,5.806,5.806,0,0,1-2.3,1.645c-1.73.758-3.481,1.474-5.213,2.231a2.417,2.417,0,0,0-.861,3.284,2.463,2.463,0,0,0,3.284.861c1-.439,2.007-.882,3.013-1.318.214-.092.428-.187.643-.276-.187.077-.369.14-.074.037a16.188,16.188,0,0,0,2.1-.906,9.527,9.527,0,0,0,4.677-5.5,39.877,39.877,0,0,0,1.233-6.673,84.438,84.438,0,0,0,1.013-11.224c.061-3.09-4.739-3.09-4.8,0Z"/><path class="b" d="M151.048,170.354a84.605,84.605,0,0,0,1.013,11.224,36.607,36.607,0,0,0,1.315,6.905,9.617,9.617,0,0,0,5.066,5.5c.412.194.836.368,1.261.534.161.064.86.341.111.027.384.161.763.334,1.144.5,1.086.479,2.17.963,3.269,1.41a2.416,2.416,0,0,0,2.953-1.677,2.459,2.459,0,0,0-1.676-2.952c-.563-.228.518.226-.207-.085-.206-.088-.412-.178-.617-.268-.475-.208-.95-.419-1.424-.628-.773-.341-1.56-.648-2.334-.982a6.006,6.006,0,0,1-2.277-1.571,4.765,4.765,0,0,1-.868-1.784,51.5,51.5,0,0,1-1.087-6.2,74.974,74.974,0,0,1-.842-9.948c-.061-3.085-4.861-3.1-4.8,0Z"/><path class="b" d="M145.081,107.638c.839-.211,1.685-.389,2.539-.527.137-.022.925-.183.24-.042.172-.036.356-.044.53-.063q.661-.072,1.326-.108a19.021,19.021,0,0,1,2.5.02c.114.009.586-.014.662.066l-.314-.043c.107.016.213.033.319.051a11.764,11.764,0,0,1,1.219.281,2.4,2.4,0,1,0,1.276-4.628c-3.724-1.068-7.88-.565-11.577.364a2.4,2.4,0,0,0,1.276,4.629Z"/><path class="b" d="M104.586,103a23.446,23.446,0,0,0-11.579-.342,2.419,2.419,0,0,0-1.676,2.952,2.455,2.455,0,0,0,2.952,1.676c.407-.089.815-.17,1.225-.238.118-.019.235-.037.353-.054l-.284.036c.232-.043.476-.057.712-.079a19.841,19.841,0,0,1,2.351-.081q.6.015,1.2.066c.218.019.436.043.654.067.637.07-.521-.092.116.019a25.7,25.7,0,0,1,2.7.607A2.4,2.4,0,0,0,104.586,103Z"/><path class="b" d="M118.316,101.874a19.891,19.891,0,0,1,3.435-3.4l-.486.375q.378-.289.77-.563a2.574,2.574,0,0,0,1.1-1.434,2.454,2.454,0,0,0-.242-1.85,2.424,2.424,0,0,0-1.435-1.1,2.375,2.375,0,0,0-1.849.241,21.879,21.879,0,0,0-4.69,4.335,2.672,2.672,0,0,0-.7,1.7,2.439,2.439,0,0,0,.7,1.7,2.412,2.412,0,0,0,1.7.7,2.323,2.323,0,0,0,1.7-.7Z"/><path class="b" d="M128.868,102.079a41.153,41.153,0,0,1,3.488-3.612,2.4,2.4,0,0,0,0-3.394,2.412,2.412,0,0,0-1.7-.7,2.549,2.549,0,0,0-1.7.7,41.153,41.153,0,0,0-3.488,3.612,2.672,2.672,0,0,0-.7,1.7,2.439,2.439,0,0,0,.7,1.7,2.412,2.412,0,0,0,1.7.7,2.345,2.345,0,0,0,1.7-.7Z"/><path class="d" d="M14.613,239.8a50.574,50.574,0,0,1,4.224-8.655c4.648-7.686,12.092-13.222,19.605-18.144a249.825,249.825,0,0,1,43.985-22.93c-.018-1.416,5.651-11.871,7.5-16.635.124-.32.288-.678.616-.775.359-.107.713.154,1,.4,3.173,2.724,20.591,16.912,22.459,19.2.643,2.165,1.753,5.024,3.619,10.89,1.507,3.573,4.211,10.227,5.661,13.349,2.082-4.365,4.795-10.811,6.948-16,1.041-3.169,1.879-6.718,2.332-8.244,1.868-2.289,19.286-16.477,22.459-19.2.283-.244.638-.5,1-.4.329.1.493.455.617.775,1.74,4.494,6.885,14.054,7.446,16.311A249.765,249.765,0,0,1,208.873,213c7.512,4.922,14.957,10.458,19.605,18.144a47.681,47.681,0,0,1,5.2,11.646c9.163,32.494,9.368,35.226,11.237,64.2-.284,22.781-3.679,35.2-12.963,42.74-3.556,2.889-11.315,4.885-14.934,4.858-4.523-.033-10.541-.632-15.254-2.408q.015,3.156.013,6.651l-155.836,0c0-2.39,0-4.65.01-6.809-4.764,1.9-11,2.53-15.646,2.564-3.62.027-11.379-1.969-14.934-4.858C6.083,342.182,2.688,329.766,2.4,306.985c1.868-28.972,2.074-31.7,11.236-64.2Q14.068,241.273,14.613,239.8Z"/><path class="b" d="M199.365,352.438q.007,3.194.008,6.388a2.4,2.4,0,0,0,4.8,0q0-3.194-.008-6.388a2.4,2.4,0,0,0-4.8,0Z"/><path class="b" d="M43.547,352.018c-.011,2.27-.01,4.54-.01,6.81a2.4,2.4,0,0,0,4.8,0c0-2.27,0-4.54.01-6.81a2.4,2.4,0,1,0-4.8,0Z"/><path class="b" d="M163.678,192.141a247.821,247.821,0,0,1,32.2,15.666c5.071,2.934,10.068,6.024,14.895,9.346a63.765,63.765,0,0,1,12.11,10.377c7.479,8.58,9.718,20,12.568,30.687a193.212,193.212,0,0,1,4.754,21.712c.493,3.365.909,7.538,1.219,11.345.426,5.232.751,10.472,1.089,15.711a2.456,2.456,0,0,0,2.4,2.4,2.421,2.421,0,0,0,2.4-2.4c-.548-8.49-.988-17.013-2.084-25.454a178.208,178.208,0,0,0-4.435-21.877c-1.358-5.224-2.811-10.422-4.272-15.618a52.12,52.12,0,0,0-7.565-16.517c-6.729-9.348-16.978-15.652-26.684-21.509a255.849,255.849,0,0,0-37.317-18.5A2.416,2.416,0,0,0,162,189.189a2.458,2.458,0,0,0,1.676,2.952Z"/><path class="b" d="M125.347,215.284c-1.363-2.953-2.585-5.97-3.832-8.973-1.376-3.311-2.5-6.669-3.657-10.061-.672-1.959-1.116-4.632-2.578-6.139-1.226-1.265-2.595-2.4-3.925-3.556-4.122-3.571-8.327-7.047-12.524-10.529-1.577-1.309-3.157-2.613-4.726-3.931-1.006-.844-1.98-1.836-3.388-1.838a3.157,3.157,0,0,0-2.8,1.8,15.5,15.5,0,0,0-.713,1.707c-1.376,3.157-2.943,6.23-4.437,9.332-.62,1.286-1.237,2.574-1.8,3.886a8.225,8.225,0,0,0-.945,3.1c0,3.088,4.8,3.094,4.8,0,0-.018-.21.666-.006.178.078-.188.126-.394.2-.586.056-.151.3-.755.223-.564-.059.138.246-.553.328-.734.712-1.575,1.474-3.128,2.23-4.683.816-1.676,1.636-3.351,2.428-5.038a35.85,35.85,0,0,1,2.106-4.622l-.861.861.279-.173-1.212.328h.355l-1.211-.327a1.485,1.485,0,0,1,.613.41l.706.593q.978.817,1.959,1.632,2.591,2.151,5.182,4.3c3.67,3.052,7.347,6.1,10.933,9.253a29.15,29.15,0,0,1,3.222,3.032l-.618-1.059a189.559,189.559,0,0,0,9.523,24.812,2.418,2.418,0,0,0,3.283.861,2.454,2.454,0,0,0,.861-3.283Z"/><path class="b" d="M125.347,217.706c1.983-4.174,3.782-8.436,5.573-12.7a57.625,57.625,0,0,0,2.388-6.387c.548-1.9,1.007-3.829,1.561-5.729l-.617,1.059a25.139,25.139,0,0,1,2.673-2.547c1.617-1.436,3.264-2.839,4.914-4.237,3.695-3.128,7.425-6.214,11.15-9.306q1.122-.932,2.243-1.865.438-.366.874-.733a2.743,2.743,0,0,1,.761-.534l-1.211.327h.354l-1.211-.328.278.173-.861-.861a34.693,34.693,0,0,1,2.042,4.483c.812,1.735,1.655,3.455,2.493,5.177.738,1.518,1.481,3.035,2.179,4.571.143.314.284.628.42.944-.193-.449.1.242.152.389.075.2.135.408.211.608.19.5.009-.04.009-.123,0,3.088,4.8,3.093,4.8,0,0-1.891-1.275-3.9-2.055-5.548-1.245-2.639-2.555-5.247-3.8-7.884-1.126-2.383-2.446-7.948-6.22-6.072a25.1,25.1,0,0,0-4.25,3.385c-3.888,3.23-7.785,6.449-11.643,9.715-1.737,1.47-3.471,2.945-5.17,4.46-1.116.994-2.68,2.115-3.171,3.578-.593,1.766-.96,3.623-1.472,5.415a54.851,54.851,0,0,1-2.279,6.2c-1.683,4.012-3.389,8.019-5.256,11.949a2.465,2.465,0,0,0,.861,3.283,2.42,2.42,0,0,0,3.283-.861Z"/><path class="b" d="M121.085,227.948q0,28.855.207,57.712.151,26.046.33,52.091c.035,6.041.075,12.082.075,18.122,0,3.089,4.8,3.094,4.8,0,0-12.9-.122-25.807-.207-38.71q-.187-28.7-.329-57.405-.066-15.906-.076-31.81c0-3.089-4.8-3.094-4.8,0Z"/><path class="b" d="M82.36,187.513a256.406,256.406,0,0,0-33.344,16.149c-5.19,3-10.307,6.167-15.238,9.584a68.06,68.06,0,0,0-12.738,10.89,48,48,0,0,0-8.88,15.406c-1.938,5.417-3.244,11.137-4.734,16.693a197.529,197.529,0,0,0-4.943,22.418C1.108,288.036.614,297.529,0,306.985a2.423,2.423,0,0,0,2.4,2.4,2.445,2.445,0,0,0,2.4-2.4c.537-8.322.973-16.674,2.02-24.951.1-.812.129-1.016.27-1.981q.189-1.3.4-2.591.4-2.388.88-4.762c.756-3.731,1.654-7.433,2.6-11.118,1.287-4.984,2.666-9.943,4.056-14.9,1.608-5.731,3.593-11.122,6.992-16.067,6.174-8.983,16.291-14.941,25.436-20.461a248.334,248.334,0,0,1,36.171-18.014,2.474,2.474,0,0,0,1.676-2.952,2.416,2.416,0,0,0-2.953-1.676Z"/><path class="a" d="M188.749,159.748c-3.373-6.7-6.126-19.167-10.261-25.159-9.03-13.088-32.409-13.588-46.161-21.966-1.771-1.079-5.372-4.231-9.485-4.231-3.776,0-13.148,5.544-14.855,6.671-16.9,11.156-31.1,7.78-44.987,27.011-4.345,6.014-14.292,21.308-19.472,32.868,6.854,2.869,39.841,18.2,46.665,19.851,5.372,1.3,14.706,18.563,29.31,23.932C136.366,216,157.338,189.26,167.457,185.6c8.975-3.246,30.516-9.127,29.09-11.5C192.253,166.969,189.609,161.457,188.749,159.748Z"/><path class="b" d="M190.821,158.537c-3.123-6.285-4.674-13.27-7.421-19.722a28.139,28.139,0,0,0-4.958-8.113,29.672,29.672,0,0,0-7.219-5.618c-11.441-6.555-25.186-7.474-36.643-13.924-2.844-1.6-5.288-3.749-8.488-4.685-3.044-.89-5.786-.263-8.629.909a69.515,69.515,0,0,0-8.176,4.089c-2.273,1.308-4.431,2.8-6.735,4.055-5.673,3.09-11.814,4.981-17.814,7.3a51.231,51.231,0,0,0-17.183,10.32c-4.926,4.67-8.669,10.471-12.33,16.144a222.641,222.641,0,0,0-11.411,19.533q-1.236,2.426-2.359,4.9a2.459,2.459,0,0,0,1.435,3.526c.177.074-.59-.254.048.021l.476.205q.66.287,1.318.576,1.623.714,3.24,1.438,4.179,1.866,8.353,3.743c6.5,2.909,13,5.812,19.552,8.6,4.479,1.9,9.056,4.119,13.8,5.3.1.026.2.073.3.1.291.081-.544-.3-.135-.05.169.1.351.187.521.29.21.128.408.274.611.412.115.078.426.344.008,0,.147.119.293.239.437.362a38.415,38.415,0,0,1,2.878,2.815c2.476,2.623,4.839,5.351,7.37,7.923a62.6,62.6,0,0,0,9.519,8.1,35.132,35.132,0,0,0,5.516,3.067,6.081,6.081,0,0,0,3.563.86,20.918,20.918,0,0,0,2.383-.547c7.41-2.134,13.874-7.026,19.775-11.811,6.089-4.936,11.742-10.375,17.767-15.384a39.494,39.494,0,0,1,6.665-4.773c.241-.13.485-.256.733-.375.219-.1.712-.292.205-.1.673-.255,1.354-.489,2.035-.722,1.544-.529,3.1-1.033,4.65-1.534,6.771-2.185,13.762-4.1,20.237-7.088,1.806-.833,4.347-2.082,4.293-4.417-.027-1.147-.834-2.111-1.389-3.056q-1.078-1.837-2.115-3.7-1.584-2.85-3.067-5.753c-.547-1.07-1.077-2.148-1.617-3.222-1.386-2.761-5.528-.333-4.144,2.423,1.578,3.143,3.172,6.272,4.889,9.343q.938,1.675,1.91,3.332.306.522.617,1.043c.2.328.468,1.211.188.172a2.116,2.116,0,0,1,.144-1.371c-.082.145.458-.521.052-.118-.324.321.508-.29-.026.02-.432.25-.847.515-1.293.742a27.593,27.593,0,0,1-3.4,1.467c-1.674.643-3.366,1.237-5.064,1.814-3.626,1.234-7.281,2.385-10.927,3.559a64.473,64.473,0,0,0-8.761,3.1,39.282,39.282,0,0,0-7.158,4.958c-6.049,4.9-11.646,10.328-17.646,15.287-6.215,5.136-13.317,10.754-21.337,12.1h1.276c-7.109-2.663-12.732-8.2-17.794-13.665-2.093-2.259-4.1-4.612-6.309-6.758a12.975,12.975,0,0,0-5.451-3.572,104.488,104.488,0,0,1-12.791-4.94c-6.166-2.628-12.29-5.357-18.408-8.1-5.065-2.267-10.1-4.606-15.222-6.753l1.434,3.526a172.413,172.413,0,0,1,10.65-19.492,147.379,147.379,0,0,1,10.343-15.376,43.17,43.17,0,0,1,15.835-12.331c5.588-2.557,11.543-4.234,17.184-6.679,5.242-2.272,9.857-5.538,14.885-8.2a31.818,31.818,0,0,1,7.387-3.144c.215-.052.43-.1.647-.136-.552.1.173,0,.311,0a7.379,7.379,0,0,1,2.506.485,17.906,17.906,0,0,1,4.117,2.3c10.439,7.154,23.527,8.445,34.936,13.454,5.2,2.285,10.187,5.359,13.009,10.372,3.344,5.941,4.89,12.779,7.34,19.1.584,1.508,1.207,3,1.927,4.453C188.052,163.726,192.193,161.3,190.821,158.537Z"/><path class="a" d="M129.633,144.537a3.568,3.568,0,0,1-.726-1.539,3.763,3.763,0,0,1,2.486-4.3,5.335,5.335,0,0,1,1-.191l-.033-.123a3.889,3.889,0,0,1-1.207-4.567,3.775,3.775,0,0,1,3.389-2.209,15.714,15.714,0,0,1,5.584.781c1.254.623,2.687,1.405,4.249,2.361l.842-2.856a6.716,6.716,0,0,1,5.13.035c6.035,3.149,10.872,5.494,17.257,9.9,6.048,5.372,10.3,13.187,12.95,17.457,6.445,10.337.926,30.115-1.031,41.211-.856,3.873-1.7,7.947-.607,11.762a23.648,23.648,0,0,0,3.759,6.881q3.41,4.843,6.915,9.611l.614.834a309.337,309.337,0,0,0-29.916,15.283q-.206-.7-.406-1.4c-2.449-8.537-2.655-17.82-7.032-25.559-.822-1.456-1.686-4.012-2.605-5.063-4.6-11.942-2.159-27.442-3.405-34.354-7.1-12.3-9.146-14.964-10.946-18.87a5.6,5.6,0,0,1,2.926-6.992c-3.728-3.172-6.967-5.617-7.748-6.5C130.538,145.528,130.03,145.051,129.633,144.537Z"/><path class="a" d="M91.275,133.95a117.015,117.015,0,0,0-13.268,7.912c-6.021,5.4-10.232,13.24-12.862,17.523-6.393,10.37-.774,30.119,1.238,41.205.876,3.869,1.741,7.938.667,11.759a23.871,23.871,0,0,1-3.714,6.9q-3.486,5.012-7.095,9.947a322.711,322.711,0,0,1,29.788,15.061c.073-.265.149-.532.222-.8,2.4-8.55,2.555-17.833,6.893-25.594.815-1.461,1.666-4.021,2.58-5.076,4.541-11.966,2.02-27.453,3.242-34.37,7.033-12.341,9.06-15.011,10.84-18.926a5.6,5.6,0,0,0-2.961-6.976c3.712-3.191,6.941-5.653,7.717-6.538.989-1.128,1.9-1.824,2.146-3.141a3.764,3.764,0,0,0-2.507-4.285,5.541,5.541,0,0,0-1.052-.191l.086-.118a3.888,3.888,0,0,0,1.184-4.573,3.779,3.779,0,0,0-3.4-2.192,15.72,15.72,0,0,0-5.58.81c-.857.431-1.8.936-2.8,1.522l-2.282-1.992a6.743,6.743,0,0,0-5.139.061C93.85,132.6,92.548,133.279,91.275,133.95Z"/><path class="b" d="M137.5,150.608a8.134,8.134,0,0,0-4.213,8.52,14.8,14.8,0,0,0,2.043,4.636c2.673,4.758,5.618,9.366,8.362,14.083.275.472.592.936.829,1.427.057.121.008.085.075.286-.013-.04-.045-.362-.008-.066.084.675.133,1.355.17,2.034.079,1.456.091,2.916.095,4.375.01,3.658-.04,7.316.128,10.972a64.32,64.32,0,0,0,1.555,12.081,19.473,19.473,0,0,0,1.957,5.527c.921,1.4,1.428,3.029,2.211,4.5a47.318,47.318,0,0,1,4.326,13.307c.955,4.815,1.853,9.587,3.265,14.3.886,2.952,5.52,1.694,4.629-1.276-1.805-6.016-2.655-12.195-4.13-18.285a43.41,43.41,0,0,0-3.076-8.814c-.6-1.239-1.269-2.434-1.834-3.693a14.9,14.9,0,0,0-1.943-3.372l.617,1.059c-3.668-9.7-2.539-20-2.974-30.122-.035-.825-.089-1.649-.182-2.47a11.463,11.463,0,0,0-.212-1.547,10.16,10.16,0,0,0-1.238-2.443q-1.974-3.394-3.991-6.764c-1.54-2.569-3.146-5.105-4.6-7.723-.281-.5-.555-1.015-.815-1.531-.133-.263-.26-.528-.389-.793-.044-.089-.086-.179-.127-.269q-.167-.362.077.181c-.026-.076-.049-.153-.068-.231.028-.075-.081-.362-.094-.443.093.574.009-.07.016-.2.013-.236,0-.472.034-.707-.057.41.095-.324.107-.364a3.363,3.363,0,0,1,1.823-2.022c2.715-1.475.3-5.621-2.423-4.145Z"/><path class="b" d="M155.621,167.9c.549.7,0-.007-.132-.182-.219-.291-.435-.583-.653-.875q-1.02-1.365-2.058-2.717c-1.815-2.358-3.672-4.684-5.641-6.916-3.706-4.2-8.241-7.6-12.548-11.16-.53-.437-1.073-.871-1.565-1.351-.558-.546-1.576-1.355-1.755-2.147-.44-1.947,2.3-1.807,3.462-1.535a10.445,10.445,0,0,1,3.132,1.83q1.9,1.3,3.741,2.685c2.17,1.644,4.24,3.42,6.276,5.226a59.281,59.281,0,0,1,11.726,14.167c1.573,2.656,5.724.244,4.145-2.423a61.854,61.854,0,0,0-11.85-14.58c-2.4-2.141-4.845-4.215-7.4-6.17q-1.893-1.45-3.858-2.8a16.018,16.018,0,0,0-4.317-2.476c-2.742-.816-6.251-.6-8.272,1.622a6.374,6.374,0,0,0-1.621,4.2,6.887,6.887,0,0,0,2.215,4.757,42.36,42.36,0,0,0,4.431,3.934c2.438,1.981,4.858,3.986,7.179,6.1,4.607,4.2,8.142,9.323,11.965,14.207a2.414,2.414,0,0,0,3.394,0,2.461,2.461,0,0,0,0-3.4Z"/><path class="b" d="M134.054,136.69c-.682-.658-1.261-1.7-.323-2.389.859-.63,2.525-.294,3.487-.169a11.085,11.085,0,0,1,1.622.333c.4.114-.1-.1.419.174.281.147.564.289.843.437,1.291.685,2.554,1.422,3.79,2.2a71.489,71.489,0,0,1,17.457,15.477c1.838,2.286,3.312,4.807,4.954,7.229,1.724,2.542,5.884.143,4.145-2.423-1.839-2.712-3.538-5.476-5.582-8.047a73.277,73.277,0,0,0-10.441-10.447,72.26,72.26,0,0,0-10.217-7.2,18.616,18.616,0,0,0-4.352-2.1,17.8,17.8,0,0,0-5.109-.565,6.15,6.15,0,0,0-4.088,10.884c2.226,2.144,5.624-1.246,3.4-3.394Z"/><path class="b" d="M145.852,134.211c1.9-.668,3.068-.315,4.8.581,1.8.935,3.608,1.864,5.4,2.826,1.805.971,3.59,1.977,5.343,3.041a30.845,30.845,0,0,1,5.555,3.83,51.9,51.9,0,0,1,7.272,9.1,89.3,89.3,0,0,1,4.913,8.058c2.946,5.783,2.256,13.336,1.465,19.6-.845,6.692-2.291,13.356-3.681,19.953-1.126,5.347-1.437,10.535,1.294,15.464a67.786,67.786,0,0,0,4.246,6.3q2.5,3.516,5.061,6.992a2.473,2.473,0,0,0,3.284.861,2.417,2.417,0,0,0,.861-3.283c-2.935-3.987-6.012-7.959-8.637-12.16a12.926,12.926,0,0,1-2.208-6.25,25.992,25.992,0,0,1,.728-6.647c1.493-7.083,2.984-14.225,3.874-21.412.872-7.035,1.185-14.73-1.882-21.309a71.445,71.445,0,0,0-5.072-8.438,59.7,59.7,0,0,0-7.689-9.8c-3.46-3.454-8.2-5.846-12.481-8.142q-3.157-1.694-6.353-3.32a9.181,9.181,0,0,0-7.363-.477,2.461,2.461,0,0,0-1.676,2.953,2.423,2.423,0,0,0,2.952,1.676Z"/><path class="b" d="M105.741,154.642a3.541,3.541,0,0,1,1.8,1.817c-.089-.221.221,1.006.153.553a4.512,4.512,0,0,1,.036.592c0,.13-.069.91.021.319-.032.212-.3,1.1-.017.358-.08.207-.187.406-.282.606q-.334.7-.7,1.387c-1.274,2.417-2.73,4.739-4.127,7.086q-1.809,3.039-3.581,6.1c-.716,1.237-1.53,2.465-2.154,3.749a9.36,9.36,0,0,0-.579,3.349c-.339,4.562-.048,9.164-.134,13.735-.114,6.054-.642,12.143-2.77,17.86l.617-1.059c-1.56,1.953-2.444,4.47-3.556,6.7a41.787,41.787,0,0,0-3.122,8.794c-1.464,6.009-2.193,12.147-3.946,18.091-.876,2.969,3.755,4.238,4.628,1.277a126.754,126.754,0,0,0,2.8-12.621,53.763,53.763,0,0,1,3.236-11.962c.772-1.74,1.683-3.418,2.476-5.152a18.98,18.98,0,0,1,.876-1.732,11.578,11.578,0,0,0,1.323-3.127,53.691,53.691,0,0,0,2.017-11.93c.271-3.811.257-7.633.232-11.451-.01-1.583-.024-3.167.007-4.75a20.946,20.946,0,0,1,.233-3.911c-.083.383.228-.428.288-.532q.4-.7.806-1.406.783-1.362,1.574-2.72,1.28-2.2,2.579-4.384c1.126-1.9,2.275-3.779,3.374-5.691a21.956,21.956,0,0,0,2.434-4.942,8.132,8.132,0,0,0-4.124-9.145c-2.722-1.46-5.149,2.682-2.423,4.145Z"/><path class="b" d="M93.523,171.257c3.234-4.175,6.224-8.582,9.911-12.386a94.624,94.624,0,0,1,7.592-6.752c1.655-1.374,3.443-2.664,4.976-4.177,2.127-2.1,3.937-4.685,2.838-7.8-1.129-3.2-4.2-4.47-7.405-4.173-3.366.313-5.9,2.4-8.543,4.344-2.519,1.855-4.944,3.833-7.293,5.9A66.373,66.373,0,0,0,81.969,162.5c-1.563,2.672,2.584,5.09,4.145,2.423,5.643-9.641,14.163-17.444,23.509-23.457,1.049-.675,3.858-1.493,4.618.067.651,1.337-1.367,2.8-2.286,3.6-3.954,3.453-8.261,6.546-11.915,10.336a91.192,91.192,0,0,0-6.409,7.708q-1.221,1.585-2.413,3.193c-.283.382-.564.765-.847,1.146-.139.188-.8,1.062-.243.339a2.481,2.481,0,0,0,0,3.394,2.416,2.416,0,0,0,3.395,0Z"/><path class="b" d="M114.932,139.941a6.486,6.486,0,0,0,2-6.383,6.177,6.177,0,0,0-4.328-4.242c-3.347-.885-7.132.179-10.06,1.791a74.623,74.623,0,0,0-20.593,17,103.325,103.325,0,0,0-6.7,9.488c-1.726,2.572,2.431,4.978,4.144,2.422,1.425-2.124,2.721-4.322,4.247-6.38a65.78,65.78,0,0,1,8.218-8.814,68.634,68.634,0,0,1,8.793-6.957c1.238-.82,2.5-1.6,3.8-2.331q.8-.453,1.621-.879c.12-.062.823-.369.413-.223a8.087,8.087,0,0,1,1.069-.282c1.127-.233,2.842-.606,3.947-.164,1.285.515.85,1.77.041,2.557-2.217,2.158,1.179,5.551,3.394,3.394Z"/><path class="b" d="M58.822,229.71c2.817-3.874,5.774-7.727,8.288-11.807a17.942,17.942,0,0,0,2.551-6.248,22.318,22.318,0,0,0-.068-7.175c-1.038-6.99-2.935-13.849-4.042-20.835-1.03-6.5-1.85-13.733.286-20.1.89-2.654,2.692-5.169,4.18-7.6a65.652,65.652,0,0,1,6.557-9.2,25.4,25.4,0,0,1,5.4-4.657q3.013-1.96,6.159-3.707c1.935-1.082,3.9-2.113,5.86-3.143a13.7,13.7,0,0,1,2.85-1.405,5.134,5.134,0,0,1,2.875.307c2.928,1.005,4.185-3.63,1.276-4.629a9.115,9.115,0,0,0-6.39.035c-1.966.826-3.847,1.967-5.73,2.969a119.405,119.405,0,0,0-11.27,6.726c-3.544,2.42-6.29,6.154-8.716,9.643-1.991,2.863-3.737,5.876-5.544,8.855-3.693,6.088-3.931,13.429-3.3,20.342.666,7.262,2.316,14.357,3.712,21.5.895,4.582,2.46,9.532.275,14a49.222,49.222,0,0,1-4.181,6.49q-2.556,3.636-5.172,7.227a2.418,2.418,0,0,0,.861,3.284,2.454,2.454,0,0,0,3.283-.861Z"/><path class="d" d="M157.049,250.916c4.734,21.008,20.441,68.6,30.084,86,2.815,5.259,6.221,10.3,11.037,13.481s13.055,4.148,18.844,4.191a32.344,32.344,0,0,0,12.492-3.307c0-18.439,0-58.662,0-58.662-5.926-12-29.447-61.383-32.592-65.926-12.463,5.134-32.743,15.179-40.593,20.741C156.52,248.487,156.765,249.654,157.049,250.916Z"/><path class="b" d="M231.576,291.4c-4.307-8.726-8.493-17.512-12.734-26.27-5.017-10.36-10.019-20.73-15.217-31a75.151,75.151,0,0,0-4.642-8.656,2.444,2.444,0,0,0-2.71-1.1,298.119,298.119,0,0,0-34.237,16.67c-2.36,1.351-4.705,2.746-6.929,4.313a2.523,2.523,0,0,0-1.1,2.71c2.051,10.707,5.344,21.227,8.605,31.613,4.1,13.074,8.557,26.062,13.61,38.8,2.093,5.277,4.277,10.533,6.769,15.636,3.1,6.352,6.732,12.839,12.42,17.225a25.583,25.583,0,0,0,10.8,4.561,48.852,48.852,0,0,0,11.381,1.069c6.508-.266,13.47-2.782,18.116-7.4,9.26-9.2,10.833-23.388,11.412-35.766.106-2.273.164-4.547.195-6.822.041-3.09-4.759-3.092-4.8,0-.1,7.561-.423,15.222-2.046,22.632-.322,1.471-.7,2.931-1.143,4.369q-.294.945-.629,1.877c-.19.528-.552,1.452-.658,1.7a31.841,31.841,0,0,1-1.74,3.445q-.438.749-.92,1.471-.272.407-.557.8c-.069.1-.553.737-.353.482a20.463,20.463,0,0,1-5.176,4.891,28.157,28.157,0,0,1-9.4,3.247,32.841,32.841,0,0,1-9.394-.131,27.85,27.85,0,0,1-10.267-2.93c-5.968-3.381-9.522-10.028-12.5-15.947-2.341-4.648-4.309-9.294-6.208-14.01-4.913-12.2-9.228-24.652-13.235-37.178-3.39-10.6-6.7-21.3-9.086-32.174q-.3-1.365-.565-2.739l-1.1,2.71a122.827,122.827,0,0,1,13.484-7.905q8.677-4.584,17.608-8.67c2.953-1.358,5.923-2.683,8.928-3.923l-2.711-1.1a63.618,63.618,0,0,1,3.87,7.136c2.338,4.58,4.612,9.193,6.879,13.809,5.3,10.8,10.531,21.645,15.769,32.481,2.017,4.171,4.025,8.346,6.075,12.5a2.425,2.425,0,0,0,3.284.861,2.451,2.451,0,0,0,.861-3.284Z"/><path class="d" d="M90.266,250.916c-4.735,21.008-20.441,68.6-30.084,86-2.815,5.259-6.221,10.3-11.037,13.481S36.089,354.54,30.3,354.583a32.344,32.344,0,0,1-12.492-3.307c0-18.439,0-58.662,0-58.662,5.926-12,29.447-61.383,32.593-65.926C62.867,231.822,83.147,241.867,91,247.429,90.8,248.487,90.55,249.654,90.266,250.916Z"/><path class="b" d="M19.884,293.826c4.307-8.726,8.492-17.513,12.733-26.271,5.017-10.359,10.019-20.73,15.218-31a75.13,75.13,0,0,1,4.641-8.655l-2.71,1.1a287.548,287.548,0,0,1,33.227,16.264c2.314,1.327,4.611,2.7,6.792,4.234l-1.1-2.71c-1.97,10.282-5.105,20.387-8.215,30.369-3.948,12.667-8.237,25.245-13.045,37.613-2.017,5.188-3.978,10-6.329,15.016-2.6,5.54-5.452,11.309-9.783,15.7a19.421,19.421,0,0,1-9.217,5.264,46.952,46.952,0,0,1-10.957,1.418c-5.514.122-11.973-1.931-15.96-5.824a22.782,22.782,0,0,1-4.156-5.341,31.39,31.39,0,0,1-3.027-7.02c-2.042-6.585-2.692-13.531-3-20.388-.1-2.2-.155-4.408-.185-6.613-.041-3.087-4.842-3.1-4.8,0,.107,7.987.5,16.082,2.217,23.909A39.307,39.307,0,0,0,8.932,346.48a26.681,26.681,0,0,0,5.907,5.828,28.812,28.812,0,0,0,10.024,3.96,32.433,32.433,0,0,0,10.053.5A40.866,40.866,0,0,0,46.9,354.21C54.5,351.094,59.153,343.987,62.864,337c2.472-4.656,4.555-9.521,6.564-14.391,5.141-12.459,9.585-25.216,13.723-38.04,3.576-11.083,7.068-22.278,9.574-33.661q.311-1.414.586-2.837a2.522,2.522,0,0,0-1.1-2.71,124.526,124.526,0,0,0-13.8-8.074q-8.764-4.615-17.784-8.729-4.752-2.175-9.58-4.18a2.422,2.422,0,0,0-2.71,1.1,63.706,63.706,0,0,0-3.87,7.136c-2.338,4.58-4.612,9.193-6.879,13.809-5.3,10.8-10.531,21.646-15.769,32.481-2.017,4.171-4.025,8.346-6.075,12.5a2.462,2.462,0,0,0,.861,3.284,2.424,2.424,0,0,0,3.284-.861Z"/><path class="b" d="M214.973,128.216c2.362-.731,4.665-1.734,6.972-2.618,2.592-.993,5.173-2.024,7.788-2.954a2.4,2.4,0,1,0-1.276-4.628c-2.615.93-5.2,1.961-7.788,2.953-2.307.884-4.61,1.888-6.972,2.618a2.4,2.4,0,1,0,1.276,4.629Z"/><path class="b" d="M214.368,144.359c4.893,1.822,9.846,3.543,14.809,5.167a2.42,2.42,0,0,0,2.952-1.676,2.456,2.456,0,0,0-1.676-2.953c-4.963-1.623-9.916-3.345-14.809-5.167a2.412,2.412,0,0,0-2.952,1.677,2.465,2.465,0,0,0,1.676,2.952Z"/></svg>