<?xml version="1.0" encoding="UTF-8" standalone="no"?>
<!-- Generator: Adobe Illustrator 12.0.0, SVG Export Plug-In  -->

<svg
   version="1.1"
   width="103.86539"
   height="239.37364"
   viewBox="-0.489 -0.04 103.86539 239.37364"
   enable-background="new -0.489 -0.04 245 244"
   xml:space="preserve"
   id="svg2"
   sodipodi:version="0.32"
   inkscape:version="1.1.2 (0a00cf5339, 2022-02-04)"
   sodipodi:docname="Mono-y-Polímero.svg"
   inkscape:output_extension="org.inkscape.output.svg.inkscape"
   xmlns:inkscape="http://www.inkscape.org/namespaces/inkscape"
   xmlns:sodipodi="http://sodipodi.sourceforge.net/DTD/sodipodi-0.dtd"
   xmlns="http://www.w3.org/2000/svg"
   xmlns:svg="http://www.w3.org/2000/svg"
   xmlns:rdf="http://www.w3.org/1999/02/22-rdf-syntax-ns#"
   xmlns:cc="http://creativecommons.org/ns#"
   xmlns:dc="http://purl.org/dc/elements/1.1/"><metadata
   id="metadata51"><rdf:RDF><cc:Work
       rdf:about=""><dc:format>image/svg+xml</dc:format><dc:type
         rdf:resource="http://purl.org/dc/dcmitype/StillImage" /></cc:Work></rdf:RDF></metadata><sodipodi:namedview
   inkscape:window-height="1006"
   inkscape:window-width="2560"
   inkscape:pageshadow="2"
   inkscape:pageopacity="0.0"
   guidetolerance="10.0"
   gridtolerance="10.0"
   objecttolerance="10.0"
   borderopacity="1.0"
   bordercolor="#666666"
   pagecolor="#ffffff"
   id="base"
   inkscape:zoom="2.1908718"
   inkscape:cx="-76.453584"
   inkscape:cy="127.80301"
   inkscape:window-x="0"
   inkscape:window-y="37"
   inkscape:current-layer="svg2"
   inkscape:pagecheckerboard="0"
   showgrid="false"
   fit-margin-top="0"
   fit-margin-left="0"
   fit-margin-right="0"
   fit-margin-bottom="0"
   inkscape:window-maximized="1" />
<defs
   id="defs4">
</defs>
<polygon
   fill="#EC1C24"
   stroke="#000000"
   points="65.219,1.116 51.932,30.567 51.935,30.568 51.93,30.568 51.932,30.567 38.645,1.116 34.893,7.908 27.318,6.226 40.605,35.68 45.72,33.371 45.72,60.859 58.145,60.859 58.145,33.371 63.26,35.68 76.548,6.226 68.971,7.908 "
   id="polygon6"
   style="fill:#ff8080;stroke:#6b6b6b;stroke-opacity:1"
   transform="translate(-0.48925432,-0.04023544)" />










<g
   id="g1135"
   style="stroke:#6a6a6a;stroke-opacity:1"
   transform="translate(-0.48925432,-0.04023544)"><polygon
     fill="#FFF100"
     stroke="#000000"
     points="44.891,238.258 52.001,222.5 52,222.5 52.002,222.5 52.001,222.5 59.11,238.258 61.116,234.626 65.171,235.523 58.062,219.766 55.325,221.001 55.325,206.295 48.677,206.295 48.677,221.001 45.94,219.766 38.83,235.523 42.884,234.626 "
     id="polygon8"
     style="fill:#ffe680;stroke:#6a6a6a;stroke-opacity:1" /><line
     fill="#FFF100"
     stroke="#000000"
     x1="52.000999"
     y1="199.838"
     x2="52.000999"
     y2="205.85001"
     id="line10"
     style="fill:#ffe680;stroke:#6a6a6a;stroke-opacity:1" /><polygon
     fill="#FFF100"
     stroke="#000000"
     points="87.439,152.62 72.238,160.846 72.238,160.849 72.236,160.846 72.238,160.846 76.127,144.005 72.329,145.68 69.648,142.507 65.757,159.353 68.682,160.028 59.772,171.725 65.063,175.754 73.973,164.056 75.4,166.696 90.603,158.466 86.835,156.727 "
     id="polygon12"
     style="fill:#ffe680;stroke:#6a6a6a;stroke-opacity:1" /><line
     fill="#FFF100"
     stroke="#000000"
     x1="58.507"
     y1="178.88"
     x2="62.148998"
     y2="174.097"
     id="line14"
     style="fill:#ffe680;stroke:#6a6a6a;stroke-opacity:1" /><polygon
     fill="#FFF100"
     stroke="#000000"
     points="16.196,152.881 31.397,161.109 31.397,161.111 31.399,161.109 31.397,161.109 27.506,144.267 31.306,145.942 33.987,142.77 37.877,159.615 34.954,160.291 43.863,171.988 38.573,176.015 29.663,164.318 28.233,166.958 13.03,158.729 16.8,156.988 "
     id="polygon16"
     style="fill:#ffe680;stroke:#6a6a6a;stroke-opacity:1" /><line
     fill="#FFF100"
     stroke="#000000"
     x1="45.127998"
     y1="179.14"
     x2="41.486"
     y2="174.35899"
     id="line18"
     style="fill:#ffe680;stroke:#6a6a6a;stroke-opacity:1" /><polygon
     fill="#FFF100"
     stroke="#000000"
     points="95.622,213.304 83.81,200.685 83.809,200.685 83.81,200.685 83.81,200.685 101.088,200.18 98.505,196.929 100.894,193.533 83.614,194.037 83.703,197.039 70.129,191.384 67.571,197.524 81.146,203.177 78.954,205.23 90.768,217.849 91.496,213.758 "
     id="polygon20"
     style="fill:#ffe680;stroke:#6a6a6a;stroke-opacity:1" /><line
     fill="#FFF100"
     stroke="#000000"
     x1="62.888"
     y1="191.972"
     x2="68.435997"
     y2="194.283"
     id="line22"
     style="fill:#ffe680;stroke:#6a6a6a;stroke-opacity:1" /><polygon
     fill="#FFF100"
     stroke="#000000"
     points="8.242,214.609 20.054,201.989 20.056,201.989 20.054,201.989 20.054,201.989 2.778,201.484 5.36,198.238 2.97,194.841 20.251,195.346 20.164,198.343 33.737,192.693 36.295,198.828 22.718,204.483 24.91,206.535 13.097,219.155 12.368,215.068 "
     id="polygon24"
     style="fill:#ffe680;stroke:#6a6a6a;stroke-opacity:1" /><line
     fill="#FFF100"
     stroke="#000000"
     x1="40.978001"
     y1="193.28101"
     x2="35.43"
     y2="195.588"
     id="line26"
     style="fill:#ffe680;stroke:#6a6a6a;stroke-opacity:1" /><polygon
     fill="#FFF100"
     stroke="#231F20"
     points="51.996,173.346 66.456,183.852 60.933,200.851 43.058,200.851 37.535,183.852 "
     id="polygon28"
     style="fill:#ffe680;stroke:#6a6a6a;stroke-opacity:1" /></g>


<g
   id="g2058"
   style="stroke:#6b6b6b;stroke-opacity:1"
   transform="translate(-0.48925432,-0.04023544)"><polygon
     fill="#00A100"
     stroke="#000000"
     points="102.75,111.603 80.755,101.68 80.755,101.683 80.755,101.677 80.755,101.68 102.75,91.756 97.679,88.954 98.934,83.298 76.939,93.221 78.662,97.041 58.135,97.041 58.135,106.319 78.662,106.319 76.939,110.14 98.934,120.063 97.679,114.405 "
     id="polygon30"
     style="fill:#bcd35f;stroke:#6b6b6b;stroke-opacity:1" /><polygon
     fill="#00A100"
     stroke="#000000"
     points="1.116,91.756 23.111,101.68 23.111,101.677 23.111,101.683 23.111,101.68 1.116,111.603 6.188,114.405 4.933,120.061 26.929,110.139 25.206,106.319 45.73,106.319 45.73,97.041 25.206,97.041 26.929,93.219 4.933,83.297 6.188,88.954 "
     id="polygon32"
     style="fill:#bcd35f;stroke:#6b6b6b;stroke-opacity:1" /><path
     fill="#00A100"
     stroke="#000000"
     d="M 49.424,97.041 C 49.396,96.898 49.38,96.752 49.38,96.603 v -5.306 c 0,-1.182 0.958,-2.14 2.14,-2.14 h 0.948 c 1.184,0 2.14,0.958 2.14,2.14 v 5.306 c 0,0.149 -0.015,0.295 -0.045,0.438 h 3.573 v -7.082 c 0,-2.806 -2.274,-5.078 -5.079,-5.078 h -2.248 c -2.804,0 -5.079,2.272 -5.079,5.078 v 7.082 z"
     id="path34"
     style="fill:#bcd35f;stroke:#6b6b6b;stroke-opacity:1" /></g>














</svg>
