<?xml version="1.0" encoding="UTF-8" standalone="no"?>
<!-- Uploaded to: SVG Repo, www.svgrepo.com, Generator: SVG Repo Mixer Tools -->

<svg
   width="734.4425"
   height="453.33069"
   viewBox="0 0 117.5108 72.53291"
   aria-hidden="true"
   role="img"
   class="iconify iconify--noto"
   preserveAspectRatio="xMidYMid meet"
   version="1.1"
   id="svg36"
   sodipodi:docname="gusano-verde.svg"
   inkscape:version="1.1.2 (0a00cf5339, 2022-02-04)"
   xmlns:inkscape="http://www.inkscape.org/namespaces/inkscape"
   xmlns:sodipodi="http://sodipodi.sourceforge.net/DTD/sodipodi-0.dtd"
   xmlns="http://www.w3.org/2000/svg"
   xmlns:svg="http://www.w3.org/2000/svg">
  <defs
     id="defs40" />
  <sodipodi:namedview
     id="namedview38"
     pagecolor="#ffffff"
     bordercolor="#666666"
     borderopacity="1.0"
     inkscape:pageshadow="2"
     inkscape:pageopacity="0.0"
     inkscape:pagecheckerboard="0"
     showgrid="false"
     inkscape:zoom="1.06125"
     inkscape:cx="369.37574"
     inkscape:cy="219.55241"
     inkscape:window-width="2560"
     inkscape:window-height="1008"
     inkscape:window-x="0"
     inkscape:window-y="35"
     inkscape:window-maximized="1"
     inkscape:current-layer="svg36"
     fit-margin-top="0"
     fit-margin-left="0"
     fit-margin-right="0"
     fit-margin-bottom="0" />
  <path
     d="m 58.990798,10.282911 c -2.3,8.12 2.14,14.81 15.86,20.37 6.65,2.69 14.78,5.74 18.43,12.26 2.95,5.29 -0.97,15.33 -14.48,13.22 -13.92,-2.17 -26.87,-18.81 -45.87,-26.41 -17.29,-6.91 -32.04999984,-3.3 -31.9299998,8.52 0.09,8.94 7.28,11.39 11.0599998,10.99 2.54,-0.27 5.03,-1.57 9.85,-2.19 6.01,-0.77 22.58,10.98 33.51,17.95 13.23,8.45 38.92,12.36 48.850002,-2.24 9.01,-13.25 5.7,-26.2 -5.630002,-34.79 -10.27,-7.78 -25.11,-9.8 -23.79,-14.3 1.62,-5.5500003 17.51,-0.49 28.860002,-1.05 11.54,-0.56 13.79,-4.7800003 13.8,-6.7600003 0.01,-2.89 -5.84,0.14 -13.87,-0.92 -14.110002,-1.86 -21.470002,-6.26 -33.390002,-4.58999999 -4.99,0.72999999 -9.65,4.24999999 -11.26,9.94000029 z"
     fill="#ec7fac"
     id="path2" />
  <g
     fill="#fea8a7"
     id="g26"
     transform="translate(-4.8192018,-28.837089)">
    <path
       d="m 101.62,36.11 c -0.11,1.68 -0.05,3.53 0.08,5.17 2.35,0.19 4.67,0.29 6.83,0.18 0.9,-0.04 1.72,-0.12 2.51,-0.2 -0.13,-1.14 -0.25,-2.46 -0.26,-3.41 -0.01,-1.34 0.06,-2.76 0.13,-3.86 -0.79,-0.03 -1.61,-0.09 -2.45,-0.2 a 95.23,95.23 0 0 1 -6.5,-1.1 c -0.13,0.97 -0.25,2.12 -0.34,3.42 z"
       id="path4"
       style="fill:#c4fea9;fill-opacity:1" />
    <path
       d="m 71.78,33.35 c 7,0.84 9.1,4.69 9.26,7.47 1.51,-0.87 4.39,-1.01 6.94,-0.88 -0.32,-1.47 -0.63,-3.24 -0.75,-4.95 -0.09,-1.25 -0.07,-3.8 -0.04,-5.55 -3.79,-0.63 -7.63,-0.86 -12.12,-0.23 -2.96,0.42 -6.41,1.8 -8.93,5.22 1.32,-0.74 3.6,-1.33 5.64,-1.08 z"
       id="path6"
       style="fill:#c4fea9;fill-opacity:1" />
    <path
       d="m 106.04,65.82 c 3.15,0 5.12,0.86 6.33,1.77 -1.8,-4.03 -4.83,-7.69 -8.91,-10.78 -1.07,-0.81 -2.2,-1.56 -3.34,-2.26 -1.38,0.3 -3.56,1.07 -5.29,3.1 -1.9,2.22 -2.23,6.11 -2.27,8.16 2.19,1.57 4.09,3.43 5.42,5.74 0.78,-1.77 3.07,-5.73 8.06,-5.73 z"
       id="path8"
       style="fill:#c4fea9;fill-opacity:1" />
    <path
       d="m 75.75,57.74 c -0.31,-1.88 -0.47,-5.23 1.38,-8.48 1.24,-2.19 3.35,-3.05 4.73,-3.39 -1.68,-1.04 -2.56,-2.1 -2.2,-3.35 0.06,-0.2 -0.09,0.17 0,0 -0.82,-2.31 -2.54,-5.63 -8.19,-6.42 -3.48,-0.49 -6.19,1.15 -7.73,3.25 -1.92,7.18 1.5,13.24 12.01,18.39 z"
       id="path10"
       style="fill:#c4fea9;fill-opacity:1" />
    <path
       d="m 92.1,56.63 c 1.77,-2.28 3.77,-3.25 5.16,-3.67 -4.64,-2.43 -9.38,-4.14 -12.79,-5.72 -1.41,0.36 -3.61,1.29 -4.95,3.7 -1.68,3.02 -1.29,6.45 -0.95,8.09 0.36,0.15 0.71,0.31 1.09,0.47 3.31,1.34 6.98,2.77 10.29,4.67 0.08,-1.84 0.45,-5.35 2.15,-7.54 z"
       id="path12"
       style="fill:#c4fea9;fill-opacity:1" />
    <path
       d="m 99.05,36.73 c 0.07,-1.48 0.29,-3.13 0.51,-4.54 -3.59,-0.8 -6.8,-1.64 -9.94,-2.29 -0.06,1.55 -0.07,3.66 0.13,5.58 0.16,1.51 0.59,3.25 1,4.66 2.61,0.24 5.46,0.61 8.34,0.9 -0.08,-1.32 -0.12,-2.81 -0.04,-4.31 z"
       id="path14"
       style="fill:#c4fea9;fill-opacity:1" />
    <path
       d="m 113.25,34.01 c -0.01,1.21 -0.01,2.74 0.02,3.8 0.02,0.9 0.12,2.07 0.22,3.1 7.25,-1.34 8.84,-4.55 8.84,-6.2 0,-2.27 -3.63,-0.89 -9.08,-0.7 z"
       id="path16"
       style="fill:#c4fea9;fill-opacity:1" />
    <path
       d="m 106.29,68.4 c -3.85,0.39 -6.28,3.86 -7.36,5.93 0.27,1.97 -0.16,4.16 -1.39,6.06 1.43,0.19 4.49,0.84 6.81,3.07 3.14,3.02 3.69,7.03 3.68,9.54 0.37,-0.45 0.72,-0.92 1.06,-1.41 4.76,-7 6.08,-13.92 4.59,-20.16 -1.39,-1.47 -3.89,-3.38 -7.39,-3.03 z"
       id="path18"
       style="fill:#c4fea9;fill-opacity:1" />
    <path
       d="m 102,86.1 c -1.68,-2.04 -4.95,-3 -6.58,-3.37 -1.79,1.41 -4.27,2.38 -7.52,2.51 0.61,1.15 1.47,3.47 1.47,7.43 0,3.93 -1.24,7.05 -2.08,8.7 6.48,-0.06 12.67,-1.56 17.36,-5.12 C 104.74,94 104.55,89.2 102,86.1 Z"
       id="path20"
       style="fill:#c4fea9;fill-opacity:1" />
    <path
       d="M 40.15,69.72 C 41.18,66.91 41.28,62.35 41.26,60.1 40.11,59.56 38.94,59.04 37.74,58.56 20.46,51.64 4.69,55.48 4.82,67.3 c 0.09,8.94 8.28,11.17 12.06,10.77 2.54,-0.27 5.03,-1.57 9.85,-2.19 1.74,-0.22 4.38,0.61 7.5,2.07 1.54,-1.27 4.4,-4.08 5.92,-8.23 z"
       id="path22"
       style="fill:#c3fea7;fill-opacity:1" />
    <path
       d="M 85.81,92.81 C 85.62,89.25 84.92,86.45 84.43,85.08 84.16,85.05 83.88,85.02 83.6,84.97 71.56,83.09 60.24,70.38 45.1,62.07 c 0.21,1.88 0.04,5.4 -2.28,11.03 -1.08,2.61 -3.68,5.43 -4.95,6.71 7.14,3.89 15.77,9.82 22.36,14.03 5.99,3.82 14.53,6.71 23,7.38 0.97,-1.64 2.76,-5.19 2.58,-8.41 z"
       id="path24"
       style="fill:#c5fea9;fill-opacity:1" />
  </g>
  <ellipse
     transform="rotate(-83.702)"
     cx="-35.117779"
     cy="17.885597"
     rx="2.3900001"
     ry="2.1600001"
     fill="#000000"
     id="ellipse28" />
  <ellipse
     transform="rotate(-5.659)"
     cx="1.403179"
     cy="37.181595"
     rx="2.1600001"
     ry="2.3900001"
     fill="#000000"
     id="ellipse30" />
  <path
     d="m 9.6507982,42.072911 c 1.7399998,0 2.7099998,-1.35 3.6299998,-0.31 1.14,1.3 -1.45,2.83 -3.6599998,2.83 -2.63,0 -4.62,-1.89 -3.43,-2.96 0.94,-0.84 1.49,0.44 3.46,0.44 z"
     fill="#000000"
     id="path32" />
  <path
     d="m 46.130798,47.172911 c -3.01,4.65 -6.55,6.06 -6.57,8.17 -0.02,1.69 2.69,3.52 10.75,8.44 8.58,5.24 11.04,5.49 12.59,4.64 1.05,-0.57 3.48,-2.09 5.8,-5.86 2.58,-4.18 3.52,-8.71 0.7,-10.75 -1.76,-1.27 -3.25,-2.31 -7.93,-5.54 -6.19,-4.28 -9.81,-7.49 -11.31,-7.46 -1.74,0.04 -1.25,4.07 -4.03,8.36 z"
     fill="#ec7fac"
     id="path34"
     style="fill:#49df02;fill-opacity:1" />
</svg>
