<?xml version="1.0" encoding="UTF-8" standalone="no"?>
<svg
   version="1.0"
   width="1536.000000pt"
   height="446.000000pt"
   viewBox="0 0 1536.000000 446.000000"
   preserveAspectRatio="xMidYMid meet"
   id="svg10"
   sodipodi:docname="Lamprea.svg"
   inkscape:version="1.1.2 (0a00cf5339, 2022-02-04)"
   xmlns:inkscape="http://www.inkscape.org/namespaces/inkscape"
   xmlns:sodipodi="http://sodipodi.sourceforge.net/DTD/sodipodi-0.dtd"
   xmlns="http://www.w3.org/2000/svg"
   xmlns:svg="http://www.w3.org/2000/svg">
  <defs
     id="defs14" />
  <sodipodi:namedview
     id="namedview12"
     pagecolor="#ffffff"
     bordercolor="#666666"
     borderopacity="1.0"
     inkscape:pageshadow="2"
     inkscape:pageopacity="0.0"
     inkscape:pagecheckerboard="0"
     inkscape:document-units="pt"
     showgrid="false"
     inkscape:zoom="0.46645569"
     inkscape:cx="883.25645"
     inkscape:cy="306.56717"
     inkscape:window-width="1920"
     inkscape:window-height="1010"
     inkscape:window-x="0"
     inkscape:window-y="33"
     inkscape:window-maximized="1"
     inkscape:current-layer="g8" />
  <metadata
     id="metadata2">
Created by potrace 1.16, written by Peter Selinger 2001-2019
</metadata>
  <g
     transform="translate(0.000000,446.000000) scale(0.100000,-0.100000)"
     fill="#000000"
     stroke="none"
     id="g8">
    <path
       d="M13630 4450 c-9 -6 -52 -8 -110 -4 -81 5 -104 3 -155 -15 -38 -13 -118 -27 -220 -36 -88 -9 -184 -20 -214 -25 -30 -6 -84 -10 -121 -10 -52 0 -71 -4 -87 -20 -17 -15 -27 -17 -52 -10 -21 6 -58 3 -123 -11 -58 -12 -187 -25 -343 -34 -137 -8 -284 -19 -325 -25 -331 -47 -846 -132 -1210 -200 -677 -126 -904 -152 -1456 -169 -402 -13 -673 -1 -1299 55 -553 50 -862 98 -1825 289 -557 110 -608 119 -800 140 -348 36 -1039 54 -1450 36 -466 -20 -991 -55 -1065 -71 -22 -5 -89 -14 -149 -20 -60 -6 -135 -20 -165 -31 -31 -12 -144 -40 -251 -64 -209 -46 -555 -139 -786 -211 -148 -45 -209 -68 -526 -197 -103 -42 -229 -88 -280 -103 -115 -32 -260 -99 -342 -158 -72 -52 -205 -188 -246 -253 -48 -76 -43 -98 47 -200 132 -148 352 -317 525 -404 128 -64 347 -159 438 -189 72 -25 189 -53 457 -112 75 -17 87 -4 79 83 -8 77 4 113 43 128 58 24 445 69 766 91 83 5 197 17 254 25 65 10 121 13 150 8 25 -4 181 -7 346 -7 419 -1 812 -27 1085 -71 417 -68 915 -168 1219 -245 360 -90 1220 -252 1488 -280 100 -10 195 -25 210 -33 15 -8 69 -17 118 -21 50 -3 159 -14 243 -23 164 -18 184 -15 163 26 -7 12 -18 21 -26 21 -16 0 -20 27 -6 48 9 15 42 -20 73 -77 14 -25 24 -31 49 -31 18 0 40 7 50 15 15 14 20 14 57 -5 37 -19 56 -21 277 -21 217 0 241 2 278 20 32 16 44 18 61 9 14 -8 112 -9 326 -5 588 12 838 38 1490 158 405 75 675 139 769 184 72 35 132 49 256 60 39 4 108 15 155 25 47 10 137 26 200 35 63 9 154 25 202 36 48 10 110 19 138 19 39 0 53 4 62 20 16 26 26 25 48 -2 17 -21 20 -22 32 -6 12 15 18 15 73 3 33 -8 152 -19 265 -24 492 -23 1069 -187 1379 -392 73 -48 171 -138 233 -211 52 -62 43 -71 -67 -65 -92 5 -164 27 -598 183 -336 121 -387 133 -515 116 -123 -17 -246 -55 -607 -189 -774 -287 -899 -313 -1945 -403 -195 -17 -598 -57 -895 -90 -1275 -140 -1451 -153 -1970 -144 -525 9 -541 5 -693 -191 -123 -159 -229 -315 -237 -348 -17 -67 41 -99 280 -156 234 -55 276 -60 725 -71 494 -13 731 -30 1230 -86 619 -69 832 -98 1275 -168 289 -46 435 -67 825 -116 179 -22 456 -58 615 -80 735 -100 972 -121 1364 -122 184 0 252 -4 277 -14 52 -22 75 -17 133 26 37 28 59 39 70 33 36 -17 218 9 506 73 170 37 315 83 510 161 135 54 159 77 138 132 l-11 30 39 -20 c35 -18 38 -22 28 -41 -10 -19 -9 -20 12 -15 13 4 30 7 37 7 19 0 14 32 -13 94 -14 31 -22 56 -19 56 21 0 64 -35 72 -60 15 -41 39 -39 98 12 147 125 226 218 354 415 83 126 113 187 130 263 7 30 30 111 52 180 55 173 65 290 50 542 -12 199 -70 679 -97 803 -26 116 -84 222 -175 318 -90 96 -90 93 -69 244 13 93 1 161 -53 290 -63 154 -148 260 -322 406 -66 56 -159 138 -206 182 -47 45 -105 95 -130 112 -131 89 -338 166 -506 188 -135 18 -144 18 -164 5z m-11687 -822 c26 -13 57 -68 57 -101 0 -36 -23 -81 -52 -101 -12 -9 -43 -16 -68 -16 -52 0 -83 18 -105 60 -55 106 60 214 168 158z m1083 -220 c23 -75 -25 -148 -54 -83 -15 32 -15 46 -2 79 12 33 46 35 56 4z m324 3 c15 -29 12 -77 -6 -95 -34 -35 -74 -9 -74 49 0 40 18 65 45 65 14 0 29 -8 35 -19z m310 4 c6 -8 12 -30 12 -50 0 -41 -16 -65 -43 -65 -22 0 -39 29 -39 65 0 56 41 85 70 50z m-946 -27 c29 -41 10 -108 -29 -108 -41 0 -56 76 -23 118 15 18 35 15 52 -10z m1258 5 c20 -18 24 -64 8 -94 -23 -42 -90 -8 -90 46 0 28 27 65 47 65 9 0 25 -7 35 -17z m337 -47 c19 -22 23 -78 9 -106 -31 -57 -94 -13 -84 58 6 40 22 62 46 62 10 0 23 -6 29 -14z m355 -88 c12 -33 -1 -76 -26 -92 -40 -24 -75 54 -47 105 16 30 61 22 73 -13z"
       id="path4"
       style="fill:#6d6d6d;fill-opacity:1" />
    <path
       d="M1836 3575 c-42 -42 -18 -107 42 -113 36 -4 72 29 72 65 0 51 -78 84 -114 48z"
       id="path6" />
  </g>
</svg>
