<?xml version="1.0" encoding="iso-8859-1"?>
<!-- Uploaded to: SVG Repo, www.svgrepo.com, Generator: SVG Repo Mixer Tools -->
<svg height="800px" width="800px" version="1.1" id="Layer_1" xmlns="http://www.w3.org/2000/svg" xmlns:xlink="http://www.w3.org/1999/xlink" 
	 viewBox="0 0 511.737 511.737" xml:space="preserve">
<g transform="translate(1 1)">
	<g>
		<path style="fill:#FFE100;" d="M91.65,203.669c-0.931,0-1.862,0-1.862,0L15.315,185.05c-4.655-0.931-8.378-6.516-6.516-11.171
			c0.931-4.655,6.516-8.378,11.171-6.516l71.68,17.687l44.684-9.309c4.655-0.931,10.24,1.862,11.171,7.447
			c0.931,4.655-1.862,10.24-7.447,11.171l-46.545,9.309C92.581,203.669,92.581,203.669,91.65,203.669z"/>
		<path style="fill:#FFE100;" d="M212.668,82.65c-20.48,0-37.236-16.756-37.236-37.236s16.756-37.236,37.236-37.236
			c5.585,0,9.309,3.724,9.309,9.309s-3.724,9.309-9.309,9.309c-10.24,0-18.618,8.378-18.618,18.618s8.378,18.618,18.618,18.618
			c5.585,0,9.309,3.724,9.309,9.309C221.977,78.927,218.253,82.65,212.668,82.65z"/>
		<path style="fill:#FFE100;" d="M305.759,82.65c-5.585,0-9.309-3.724-9.309-9.309c0-5.585,3.724-9.309,9.309-9.309
			c10.24,0,18.618-8.378,18.618-18.618s-8.378-18.618-18.618-18.618c-5.585,0-9.309-3.724-9.309-9.309s3.724-9.309,9.309-9.309
			c20.48,0,37.236,16.756,37.236,37.236S326.239,82.65,305.759,82.65z"/>
		<path style="fill:#FFE100;" d="M194.05,147.814h-74.473c-1.862,0-3.724-0.931-5.585-1.862l-55.855-37.236
			c-3.724-2.793-4.655-8.378-1.862-13.033c2.793-4.655,8.378-5.585,13.033-2.793l53.062,35.375h71.68
			c5.585,0,9.309,3.724,9.309,9.309C203.359,143.159,199.635,147.814,194.05,147.814z"/>
		<path style="fill:#FFE100;" d="M212.668,110.578h-0.931l-65.164-9.309c-2.793,0-4.655-1.862-6.516-3.724L93.511,32.381
			c-2.793-4.655-1.862-10.24,1.862-13.033s10.24-1.862,13.033,1.862l44.684,62.371l60.509,8.378
			c4.655,0.931,8.378,5.585,7.447,10.24C221.046,106.854,217.322,110.578,212.668,110.578z"/>
		<path style="fill:#FFE100;" d="M426.777,203.669c-0.931,0-0.931,0-1.862,0l-46.545-9.309c-4.655-0.931-8.378-5.585-7.447-11.171
			c0.931-4.655,5.585-8.378,11.171-7.447l44.684,9.309l72.611-17.687c4.655-0.931,10.24,1.862,11.171,6.516
			c0.931,4.655-1.862,10.24-6.516,11.171l-74.473,18.618C428.639,203.669,427.708,203.669,426.777,203.669z"/>
		<path style="fill:#FFE100;" d="M398.85,147.814h-74.473c-5.585,0-9.309-3.724-9.309-9.309c0-5.585,3.724-9.309,9.309-9.309h71.68
			l53.062-35.375c4.655-2.793,10.24-1.862,13.033,2.793c2.793,4.655,1.862,10.24-2.793,13.033l-55.855,37.236
			C402.573,146.883,400.711,147.814,398.85,147.814z"/>
		<path style="fill:#FFE100;" d="M305.759,110.578c-4.655,0-8.378-3.724-9.309-8.378c-0.931-4.655,2.793-10.24,7.447-10.24
			l61.44-8.378L410.02,21.21c2.793-3.724,8.378-5.585,13.033-1.862c3.724,2.793,5.585,8.378,1.862,13.033L378.37,97.545
			c-0.931,1.862-3.724,3.724-6.516,3.724l-65.164,9.309H305.759z"/>
		<path style="fill:#FFE100;" d="M203.359,82.65c0-20.48,20.48-37.236,46.545-37.236S296.45,62.17,296.45,82.65
			s-20.48,37.236-46.545,37.236S203.359,103.13,203.359,82.65"/>
		<path style="fill:#FFE100;" d="M380.231,212.978c-22.342-82.851-130.327-93.091-130.327-93.091s-107.985,10.24-130.327,93.091
			l-15.825,133.12c-3.724,29.789,2.793,60.509,18.618,85.644c19.549,30.72,56.785,60.509,127.535,60.509
			s107.985-30.72,127.535-60.509c16.756-25.135,22.342-55.855,18.618-85.644L380.231,212.978z"/>
	</g>
	<path style="fill:#FDCC00;" d="M113.991,262.316c23.273,41.891,75.404,71.68,135.913,71.68s112.64-29.789,135.913-71.68
		l-5.585-49.338c-22.342-82.851-130.327-93.091-130.327-93.091s-107.985,10.24-130.327,93.091L113.991,262.316z"/>
	<path style="fill:#FFA800;" d="M396.988,346.098l-15.825-133.12c-22.342-82.851-130.327-93.091-130.327-93.091
		s-3.724,0-10.24,1.862c26.996,4.655,101.469,24.204,120.087,91.229l15.825,133.12c3.724,29.789-2.793,60.509-18.618,85.644
		c-18.618,28.858-53.062,57.716-117.295,60.509c3.724,0,6.516,0,10.24,0c70.749,0,107.985-30.72,127.535-60.509
		C394.195,406.607,400.711,375.887,396.988,346.098"/>
	<path style="fill:#FFFFFF;" d="M102.821,346.098l15.825-133.12c22.342-82.851,130.327-93.091,130.327-93.091s3.724,0,10.24,1.862
		c-26.996,4.655-101.469,24.204-120.087,91.229l-15.825,133.12c-3.724,29.789,2.793,60.509,18.618,85.644
		c18.618,28.858,53.062,57.716,117.295,60.509c-3.724,0-6.516,0-10.24,0c-70.749,0-107.985-30.72-127.535-60.509
		C105.613,406.607,99.097,375.887,102.821,346.098"/>
	<path d="M82.341,203.669c-0.931,0-1.862,0-1.862,0L6.006,185.05c-4.655-0.931-8.378-6.516-6.516-11.171
		c0.931-4.655,6.516-8.378,11.171-6.516l71.68,17.687l44.684-9.309c4.655-0.931,10.24,1.862,11.171,7.447
		c0.931,4.655-1.862,10.24-7.447,11.171l-46.545,9.309C83.271,203.669,83.271,203.669,82.341,203.669z"/>
	<path d="M249.904,501.559c-77.265,0-116.364-35.375-134.982-65.164c-16.756-26.065-24.204-58.647-20.48-92.16l15.825-134.051
		c24.204-87.505,134.051-99.607,138.705-99.607h0.931h0.931c4.655,0,114.502,12.102,138.705,99.607v0.931l15.825,133.12
		c3.724,33.513-2.793,66.095-20.48,92.16C366.268,466.185,327.17,501.559,249.904,501.559z M128.886,214.839l-15.825,132.189
		c-3.724,28.858,2.793,56.785,17.687,79.127c24.204,37.236,64.233,55.855,119.156,55.855s94.953-18.618,119.156-55.855
		c14.895-22.342,20.48-50.269,17.687-79.127l-15.825-132.189c-20.48-70.749-110.778-84.713-121.018-85.644
		C239.664,130.127,148.435,144.09,128.886,214.839z"/>
	<path d="M249.904,129.196c-30.72,0-55.855-20.48-55.855-46.545s25.135-46.545,55.855-46.545s55.855,20.48,55.855,46.545
		S280.624,129.196,249.904,129.196z M249.904,54.723c-20.48,0-37.236,12.102-37.236,27.927s16.756,27.927,37.236,27.927
		s37.236-12.102,37.236-27.927S270.384,54.723,249.904,54.723z"/>
	<path d="M203.359,82.65c-20.48,0-37.236-16.756-37.236-37.236s16.756-37.236,37.236-37.236c5.585,0,9.309,3.724,9.309,9.309
		s-3.724,9.309-9.309,9.309c-10.24,0-18.618,8.378-18.618,18.618s8.378,18.618,18.618,18.618c5.585,0,9.309,3.724,9.309,9.309
		C212.668,78.927,208.944,82.65,203.359,82.65z"/>
	<path d="M296.45,82.65c-5.585,0-9.309-3.724-9.309-9.309c0-5.585,3.724-9.309,9.309-9.309c10.24,0,18.618-8.378,18.618-18.618
		s-8.378-18.618-18.618-18.618c-5.585,0-9.309-3.724-9.309-9.309s3.724-9.309,9.309-9.309c20.48,0,37.236,16.756,37.236,37.236
		S316.93,82.65,296.45,82.65z"/>
	<path d="M184.741,147.814h-77.265l-58.647-39.098c-3.724-2.793-4.655-8.378-1.862-13.033c2.793-3.724,8.378-4.655,13.033-1.862
		l53.062,35.375h71.68c5.585,0,9.309,3.724,9.309,9.309C194.05,144.09,190.326,147.814,184.741,147.814z"/>
	<path d="M203.359,110.578h-0.931l-68.887-10.24L84.202,32.381c-2.793-4.655-1.862-10.24,1.862-13.033
		c4.655-2.793,10.24-1.862,13.033,1.862l44.684,62.371l60.509,8.378c4.655,0.931,8.378,5.585,7.447,10.24
		C211.737,106.854,208.013,110.578,203.359,110.578z"/>
	<path d="M417.468,203.669c-0.931,0-0.931,0-1.862,0l-46.545-9.309c-4.655-0.931-8.378-5.585-7.447-11.171
		c0.931-4.655,5.585-8.378,11.171-7.447l44.684,9.309l72.611-17.687c4.655-0.931,10.24,1.862,11.171,6.516
		c0.931,4.655-1.862,10.24-6.516,11.171l-74.473,18.618C419.33,203.669,418.399,203.669,417.468,203.669z"/>
	<path d="M392.333,147.814h-77.265c-5.585,0-9.309-3.724-9.309-9.309c0-5.585,3.724-9.309,9.309-9.309h71.68l53.062-35.375
		c4.655-2.793,10.24-1.862,13.033,2.793c2.793,4.655,1.862,10.24-2.793,13.033L392.333,147.814z"/>
	<path d="M296.45,110.578c-4.655,0-8.378-3.724-9.309-8.378c-0.931-4.655,2.793-10.24,7.447-10.24l61.44-8.378l44.684-62.371
		c2.793-3.724,8.378-5.585,13.033-1.862c3.724,2.793,5.585,8.378,1.862,13.033l-48.407,67.956l-69.818,10.24H296.45z"/>
	<path d="M249.904,343.305c-62.371,0-119.156-29.789-144.291-77.265l-1.862-2.793l6.516-53.062
		c24.204-87.505,134.051-99.607,138.705-99.607h0.931h0.931c4.655,0,114.502,12.102,138.705,99.607v0.931l6.516,52.131l-1.862,2.793
		C369.061,313.516,312.275,343.305,249.904,343.305z M123.301,260.454c23.273,39.098,72.611,64.233,126.604,64.233
		s103.331-25.135,126.604-64.233l-5.585-45.615c-20.48-70.749-110.778-84.713-121.018-85.644
		c-10.24,0.931-101.469,14.895-121.018,85.644L123.301,260.454z"/>
</g>
</svg>