<?xml version="1.0" encoding="UTF-8" standalone="no"?>
<!-- Uploaded to: SVG Repo, www.svgrepo.com, Generator: SVG Repo Mixer Tools -->

<svg
   height="1193.4174"
   width="1206.4202"
   version="1.1"
   id="Layer_1"
   viewBox="0 0 772.10892 763.78711"
   xml:space="preserve"
   sodipodi:docname="virus-lisado.svg"
   inkscape:version="1.1.2 (0a00cf5339, 2022-02-04)"
   xmlns:inkscape="http://www.inkscape.org/namespaces/inkscape"
   xmlns:sodipodi="http://sodipodi.sourceforge.net/DTD/sodipodi-0.dtd"
   xmlns="http://www.w3.org/2000/svg"
   xmlns:svg="http://www.w3.org/2000/svg"><defs
   id="defs87">
	
	
	

	
	
	

	
	

	
	
	
	
	

	
	
	
	

	
	
</defs><sodipodi:namedview
   id="namedview85"
   pagecolor="#ffffff"
   bordercolor="#666666"
   borderopacity="1.0"
   inkscape:pageshadow="2"
   inkscape:pageopacity="0.0"
   inkscape:pagecheckerboard="0"
   showgrid="false"
   fit-margin-top="0"
   fit-margin-left="0"
   fit-margin-right="0"
   fit-margin-bottom="0"
   inkscape:zoom="0.513125"
   inkscape:cx="511.57125"
   inkscape:cy="635.32278"
   inkscape:window-width="2560"
   inkscape:window-height="1006"
   inkscape:window-x="0"
   inkscape:window-y="37"
   inkscape:window-maximized="1"
   inkscape:current-layer="Layer_1" />





<path
   id="SVGCleanerId_3"
   style="fill:#364a57"
   d="m 455.69494,320.3063 c -54.678,0 -99.163,44.484 -99.163,99.163 0,54.678 44.484,99.163 99.163,99.163 54.679,0 99.163,-44.485 99.163,-99.163 -10e-4,-54.68 -44.486,-99.163 -99.163,-99.163 z" />








<path
   style="fill:#476172"
   d="m 341.30767,317.61331 c -53.942,0.858 -97.566,44.978 -97.566,99.121 0,54.142 43.624,98.263 97.566,99.121 z"
   id="path58" />

<path
   style="fill:#aa5446"
   d="m 410.70316,282.98751 c -11.092,0 -20.085,-8.993 -20.085,-20.08499 v -121.851 c 0,-11.092 8.993,-20.085 20.085,-20.085 11.092,0 20.085,8.993 20.085,20.085 v 121.851 c 0,11.09299 -8.993,20.08499 -20.085,20.08499 z"
   id="path2" /><path
   style="fill:#dd6b5b"
   d="m 372.81529,125.42869 c -10.466,0.692 -18.746,9.377 -18.746,20.017 v 121.851 c 0,10.641 8.281,19.326 18.746,20.017 z"
   id="path43" /><path
   style="fill:#0c92b6"
   d="m 454.31505,0 c -30.207,0 -54.782,24.576 -54.782,54.783004 0,30.207002 24.575,54.782006 54.782,54.782006 30.207,0 54.782,-24.575004 54.782,-54.782006 C 509.09705,24.576 484.52105,0 454.31505,0 Z"
   id="path60" /><path
   style="fill:#01aedb"
   d="m 342.56795,16.44634 c -29.471,0.849 -53.187,25.070004 -53.187,54.742 0,29.672 23.717,53.893 53.187,54.742 z"
   id="path62" />

<g
   id="g1310"
   transform="translate(83.8103,174.13501)"><g
     id="g1215"
     transform="translate(60.914814,83.933085)"><path
       style="fill:#aa5446"
       d="m 261.357,470.914 c -11.092,0 -20.085,-8.993 -20.085,-20.085 v -123.19 c 0,-11.092 8.993,-20.085 20.085,-20.085 11.092,0 20.085,8.993 20.085,20.085 v 123.19 c 0,11.092 -8.993,20.085 -20.085,20.085 z"
       id="path4" /><path
       style="fill:#dd6b5b"
       d="m 260.018,307.62 c -10.466,0.692 -18.746,9.377 -18.746,20.017 v 123.19 c 0,10.641 8.281,19.326 18.746,20.017 z"
       id="path45" /><path
       style="fill:#0c92b6"
       d="m 261.613,396.155 c -30.207,0 -54.782,24.576 -54.782,54.782 0,30.206 24.575,54.782 54.782,54.782 30.207,0 54.782,-24.576 54.782,-54.782 0,-30.206 -24.576,-54.782 -54.782,-54.782 z"
       id="path64" /></g><path
     style="fill:#01aedb"
     d="m 322.52781,480.08808 c -29.471,0.849 -53.187,25.07 -53.187,54.74201 0,29.672 23.717,53.893 53.187,54.742 z"
     id="path66" /></g><g
   id="g1493"
   transform="translate(0,157.97225)"><path
     id="SVGCleanerId_0"
     style="fill:#aa5446"
     d="M 189.05,275.416 H 65.86 c -11.092,0 -20.085,-8.993 -20.085,-20.085 0,-11.092 8.993,-20.085 20.085,-20.085 h 123.19 c 11.092,0 20.085,8.993 20.085,20.085 0,11.093 -8.993,20.085 -20.085,20.085 z" /><g
     id="g27">
	<path
   id="SVGCleanerId_0_1_"
   style="fill:#aa5446"
   d="M 189.05,275.416 H 65.86 c -11.092,0 -20.085,-8.993 -20.085,-20.085 0,-11.092 8.993,-20.085 20.085,-20.085 h 123.19 c 11.092,0 20.085,8.993 20.085,20.085 0,11.093 -8.993,20.085 -20.085,20.085 z" />
</g><path
     style="fill:#dd6b5b"
     d="M 189.05,275.416 H 65.86 c -11.092,0 -20.085,-8.993 -20.085,-20.085 0,-11.092 8.993,-20.085 20.085,-20.085 h 123.19 c 11.092,0 20.085,8.993 20.085,20.085 0,11.093 -8.993,20.085 -20.085,20.085 z"
     id="path47" /><path
     style="fill:#01aedb"
     d="m 109.565,255.331 c 0,-30.207 -24.576,-54.782 -54.783,-54.782 C 24.575,200.549 0,225.123 0,255.331 c 0,30.207 24.575,54.782 54.782,54.782 30.207,0 54.783,-24.576 54.783,-54.782 z"
     id="path68" /></g><g
   id="g1486"
   transform="translate(73.30771,234.2492)"><path
     id="SVGCleanerId_2"
     style="fill:#aa5446"
     d="m 121.655,409.762 c -5.141,0 -10.281,-1.962 -14.202,-5.884 -7.844,-7.843 -7.844,-20.561 0,-28.405 l 86.868,-86.868 c 7.843,-7.843 20.561,-7.843 28.405,0 7.844,7.843 7.844,20.561 0,28.405 l -86.868,86.868 c -3.923,3.922 -9.063,5.884 -14.203,5.884 z" /><g
     id="g33">
	<path
   id="SVGCleanerId_2_1_"
   style="fill:#aa5446"
   d="m 121.655,409.762 c -5.141,0 -10.281,-1.962 -14.202,-5.884 -7.844,-7.843 -7.844,-20.561 0,-28.405 l 86.868,-86.868 c 7.843,-7.843 20.561,-7.843 28.405,0 7.844,7.843 7.844,20.561 0,28.405 l -86.868,86.868 c -3.923,3.922 -9.063,5.884 -14.203,5.884 z" />
</g><path
     style="fill:#dd6b5b"
     d="m 121.655,409.762 c -5.141,0 -10.281,-1.962 -14.202,-5.884 -7.844,-7.843 -7.844,-20.561 0,-28.405 l 86.868,-86.868 c 7.843,-7.843 20.561,-7.843 28.405,0 7.844,7.843 7.844,20.561 0,28.405 l -86.868,86.868 c -3.923,3.922 -9.063,5.884 -14.203,5.884 z"
     id="path51" /><path
     style="fill:#01aedb"
     d="m 74.981,358.876 c -10.348,10.347 -16.045,24.104 -16.045,38.738 0,14.633 5.699,28.39 16.045,38.737 10.681,10.681 24.706,16.02 38.737,16.02 14.028,0 28.059,-5.341 38.738,-16.02 21.36,-21.359 21.36,-56.114 0,-77.473 -21.362,-21.36 -56.116,-21.362 -77.475,-0.002 z"
     id="path70" /></g><path
   style="fill:#dd6b5b"
   d="m 261.45586,316.58295 c -5.141,0 -10.281,-1.96 -14.202,-5.884 l -86.869,-86.866 c -7.844,-7.844 -7.844,-20.561 0,-28.405 7.843,-7.844 20.561,-7.844 28.405,0 l 86.868,86.868 c 7.844,7.844 7.844,20.561 0,28.405 -3.922,3.922 -9.063,5.882 -14.202,5.882 z"
   id="path49" /><path
   style="fill:#01aedb"
   d="m 116.82378,82.540817 c -14.633,0 -28.39,5.699 -38.737,16.045 -21.36,21.359003 -21.36,56.113003 0,77.474003 10.68,10.68 24.709,16.019 38.737,16.019 14.029,0 28.058,-5.34 38.737,-16.02 10.348,-10.347 16.045,-24.104 16.045,-38.737 0,-14.633 -5.699,-28.39 -16.045,-38.737003 -10.347,-10.346 -24.104,-16.044 -38.737,-16.044 z"
   id="path72" />
<g
   id="g932"
   transform="translate(160.26889,154.8643)"><path
     style="fill:#aa5446"
     d="m 556.694,275.416 h -123.19 c -11.092,0 -20.085,-8.993 -20.085,-20.085 0,-11.092 8.993,-20.085 20.085,-20.085 h 123.19 c 11.092,0 20.085,8.993 20.085,20.085 0,11.093 -8.993,20.085 -20.085,20.085 z"
     id="path6" /><path
     style="fill:#0c92b6"
     d="m 611.84,255.331 c 0,-30.207 -24.575,-54.782 -54.782,-54.782 -30.207,0 -54.783,24.575 -54.783,54.782 0,30.207 24.576,54.782 54.783,54.782 30.207,0 54.782,-24.576 54.782,-54.782"
     id="path76" /></g><g
   id="g938"
   transform="translate(104.24125,231.87846)"><path
     style="fill:#aa5446"
     d="m 498.122,409.762 c -5.141,0 -10.281,-1.962 -14.202,-5.884 L 397.052,317.01 c -7.844,-7.843 -7.844,-20.561 0,-28.405 7.843,-7.843 20.561,-7.843 28.405,0 l 86.868,86.868 c 7.844,7.843 7.844,20.561 0,28.405 -3.922,3.922 -9.062,5.884 -14.203,5.884 z"
     id="path12" /><path
     style="fill:#0c92b6"
     d="m 536.859,350.939 c -21.359,-21.359 -56.114,-21.359 -77.474,0 -21.359,21.36 -21.359,56.114 0,77.473 10.348,10.348 24.104,16.046 38.738,16.046 14.634,0 28.391,-5.699 38.737,-16.046 10.348,-10.347 16.045,-24.104 16.045,-38.737 0,-14.633 -5.698,-28.39 -16.046,-38.736 z"
     id="path78" /></g><g
   id="g942"
   transform="translate(112.07636,77.053555)"><path
     style="fill:#aa5446"
     d="m 411.255,220.001 c -5.141,0 -10.281,-1.96 -14.202,-5.884 -7.844,-7.844 -7.844,-20.561 0,-28.405 l 86.868,-86.868 c 7.843,-7.844 20.561,-7.844 28.405,0 7.844,7.844 7.844,20.561 0,28.405 l -86.868,86.868 c -3.922,3.924 -9.063,5.884 -14.203,5.884 z"
     id="path14" /><path
     style="fill:#0c92b6"
     d="m 498.122,167.805 c 14.029,0 28.058,-5.34 38.737,-16.02 10.348,-10.347 16.045,-24.104 16.045,-38.737 0,-14.633 -5.699,-28.391 -16.045,-38.737 -10.347,-10.348 -24.104,-16.045 -38.738,-16.045 -14.633,0 -28.39,5.699 -38.737,16.045 -21.36,21.359 -21.36,56.113 0,77.474 10.682,10.681 24.709,16.02 38.738,16.02 z"
     id="path80" /></g>
</svg>
