<?xml version="1.0" encoding="iso-8859-1"?>
<!-- Uploaded to: SVG Repo, www.svgrepo.com, Generator: SVG Repo Mixer Tools -->
<svg height="800px" width="800px" version="1.1" id="Layer_1" xmlns="http://www.w3.org/2000/svg" xmlns:xlink="http://www.w3.org/1999/xlink" 
	 viewBox="0 0 512 512" xml:space="preserve">
<g>
	<path style="fill:#AA5446;" d="M261.357,203.109c-11.092,0-20.085-8.993-20.085-20.085V61.173c0-11.092,8.993-20.085,20.085-20.085
		s20.085,8.993,20.085,20.085v121.851C281.442,194.117,272.449,203.109,261.357,203.109z"/>
	<path style="fill:#AA5446;" d="M261.357,470.914c-11.092,0-20.085-8.993-20.085-20.085v-123.19
		c0-11.092,8.993-20.085,20.085-20.085s20.085,8.993,20.085,20.085v123.19C281.442,461.921,272.449,470.914,261.357,470.914z"/>
	<path style="fill:#AA5446;" d="M456.854,275.416h-123.19c-11.092,0-20.085-8.993-20.085-20.085
		c0-11.092,8.993-20.085,20.085-20.085h123.19c11.092,0,20.085,8.993,20.085,20.085
		C476.939,266.424,467.946,275.416,456.854,275.416z"/>
</g>
<path id="SVGCleanerId_0" style="fill:#AA5446;" d="M189.05,275.416H65.86c-11.092,0-20.085-8.993-20.085-20.085
	c0-11.092,8.993-20.085,20.085-20.085h123.19c11.092,0,20.085,8.993,20.085,20.085C209.135,266.424,200.142,275.416,189.05,275.416z
	"/>
<path id="SVGCleanerId_1" style="fill:#AA5446;" d="M208.523,220.001c-5.141,0-10.281-1.96-14.202-5.884l-86.869-86.866
	c-7.844-7.844-7.844-20.561,0-28.405c7.843-7.844,20.561-7.844,28.405,0l86.868,86.868c7.844,7.844,7.844,20.561,0,28.405
	C218.803,218.041,213.662,220.001,208.523,220.001z"/>
<g>
	<path style="fill:#AA5446;" d="M398.282,409.762c-5.141,0-10.281-1.962-14.202-5.884l-86.868-86.868
		c-7.844-7.843-7.844-20.561,0-28.405c7.843-7.843,20.561-7.843,28.405,0l86.868,86.868c7.844,7.843,7.844,20.561,0,28.405
		C408.563,407.8,403.423,409.762,398.282,409.762z"/>
	<path style="fill:#AA5446;" d="M311.415,220.001c-5.141,0-10.281-1.96-14.202-5.884c-7.844-7.844-7.844-20.561,0-28.405
		l86.868-86.868c7.843-7.844,20.561-7.844,28.405,0c7.844,7.844,7.844,20.561,0,28.405l-86.868,86.868
		C321.696,218.041,316.555,220.001,311.415,220.001z"/>
</g>
<path id="SVGCleanerId_2" style="fill:#AA5446;" d="M121.655,409.762c-5.141,0-10.281-1.962-14.202-5.884
	c-7.844-7.843-7.844-20.561,0-28.405l86.868-86.868c7.843-7.843,20.561-7.843,28.405,0c7.844,7.843,7.844,20.561,0,28.405
	l-86.868,86.868C131.935,407.8,126.795,409.762,121.655,409.762z"/>
<path id="SVGCleanerId_3" style="fill:#364A57;" d="M261.613,156.481c-54.678,0-99.163,44.484-99.163,99.163
	c0,54.678,44.484,99.163,99.163,99.163s99.163-44.485,99.163-99.163C360.775,200.964,316.29,156.481,261.613,156.481z"/>
<g>
	<path style="fill:#AA5446;" d="M260.018,41.155c-10.466,0.692-18.746,9.377-18.746,20.017v121.851
		c0,10.641,8.281,19.326,18.746,20.017V41.155z"/>
	<path style="fill:#AA5446;" d="M260.018,307.62c-10.466,0.692-18.746,9.377-18.746,20.017v123.19
		c0,10.641,8.281,19.326,18.746,20.017V307.62z"/>
</g>
<g>
	<path id="SVGCleanerId_0_1_" style="fill:#AA5446;" d="M189.05,275.416H65.86c-11.092,0-20.085-8.993-20.085-20.085
		c0-11.092,8.993-20.085,20.085-20.085h123.19c11.092,0,20.085,8.993,20.085,20.085C209.135,266.424,200.142,275.416,189.05,275.416
		z"/>
</g>
<g>
	<path id="SVGCleanerId_1_1_" style="fill:#AA5446;" d="M208.523,220.001c-5.141,0-10.281-1.96-14.202-5.884l-86.869-86.866
		c-7.844-7.844-7.844-20.561,0-28.405c7.843-7.844,20.561-7.844,28.405,0l86.868,86.868c7.844,7.844,7.844,20.561,0,28.405
		C218.803,218.041,213.662,220.001,208.523,220.001z"/>
</g>
<g>
	<path id="SVGCleanerId_2_1_" style="fill:#AA5446;" d="M121.655,409.762c-5.141,0-10.281-1.962-14.202-5.884
		c-7.844-7.843-7.844-20.561,0-28.405l86.868-86.868c7.843-7.843,20.561-7.843,28.405,0c7.844,7.843,7.844,20.561,0,28.405
		l-86.868,86.868C131.935,407.8,126.795,409.762,121.655,409.762z"/>
</g>
<path style="fill:#364A57;" d="M260.018,156.522c-53.942,0.858-97.566,44.978-97.566,99.121c0,54.142,43.624,98.263,97.566,99.121
	V156.522z"/>
<g>
	<path style="fill:#0C92B6;" d="M260.018,6.323c-29.471,0.849-53.187,25.07-53.187,54.742s23.717,53.893,53.187,54.742V6.323z"/>
	<path style="fill:#0C92B6;" d="M260.018,396.195c-29.471,0.849-53.187,25.07-53.187,54.742s23.717,53.893,53.187,54.742V396.195z"
		/>
</g>
<g>
	<path style="fill:#DD6B5B;" d="M260.018,41.155c-10.466,0.692-18.746,9.377-18.746,20.017v121.851
		c0,10.641,8.281,19.326,18.746,20.017V41.155z"/>
	<path style="fill:#DD6B5B;" d="M260.018,307.62c-10.466,0.692-18.746,9.377-18.746,20.017v123.19
		c0,10.641,8.281,19.326,18.746,20.017V307.62z"/>
	<path style="fill:#DD6B5B;" d="M189.05,275.416H65.86c-11.092,0-20.085-8.993-20.085-20.085c0-11.092,8.993-20.085,20.085-20.085
		h123.19c11.092,0,20.085,8.993,20.085,20.085C209.135,266.424,200.142,275.416,189.05,275.416z"/>
	<path style="fill:#DD6B5B;" d="M208.523,220.001c-5.141,0-10.281-1.96-14.202-5.884l-86.869-86.866
		c-7.844-7.844-7.844-20.561,0-28.405c7.843-7.844,20.561-7.844,28.405,0l86.868,86.868c7.844,7.844,7.844,20.561,0,28.405
		C218.803,218.041,213.662,220.001,208.523,220.001z"/>
	<path style="fill:#DD6B5B;" d="M121.655,409.762c-5.141,0-10.281-1.962-14.202-5.884c-7.844-7.843-7.844-20.561,0-28.405
		l86.868-86.868c7.843-7.843,20.561-7.843,28.405,0c7.844,7.843,7.844,20.561,0,28.405l-86.868,86.868
		C131.935,407.8,126.795,409.762,121.655,409.762z"/>
</g>
<g>
	<path id="SVGCleanerId_3_1_" style="fill:#364A57;" d="M261.613,156.481c-54.678,0-99.163,44.484-99.163,99.163
		c0,54.678,44.484,99.163,99.163,99.163s99.163-44.485,99.163-99.163C360.775,200.964,316.29,156.481,261.613,156.481z"/>
</g>
<path style="fill:#476172;" d="M260.018,156.522c-53.942,0.858-97.566,44.978-97.566,99.121c0,54.142,43.624,98.263,97.566,99.121
	V156.522z"/>
<path style="fill:#0C92B6;" d="M261.613,6.281c-30.207,0-54.782,24.576-54.782,54.783s24.575,54.782,54.782,54.782
	s54.782-24.575,54.782-54.782S291.819,6.281,261.613,6.281z"/>
<path style="fill:#01AEDB;" d="M260.018,6.323c-29.471,0.849-53.187,25.07-53.187,54.742s23.717,53.893,53.187,54.742V6.323z"/>
<path style="fill:#0C92B6;" d="M261.613,396.155c-30.207,0-54.782,24.576-54.782,54.782s24.575,54.782,54.782,54.782
	s54.782-24.576,54.782-54.782S291.819,396.155,261.613,396.155z"/>
<g>
	<path style="fill:#01AEDB;" d="M260.018,396.195c-29.471,0.849-53.187,25.07-53.187,54.742s23.717,53.893,53.187,54.742V396.195z"
		/>
	<path style="fill:#01AEDB;" d="M109.565,255.331c0-30.207-24.576-54.782-54.783-54.782S0,225.123,0,255.331
		c0,30.207,24.575,54.782,54.782,54.782S109.565,285.537,109.565,255.331z"/>
	<path style="fill:#01AEDB;" d="M74.981,358.876c-10.348,10.347-16.045,24.104-16.045,38.738c0,14.633,5.699,28.39,16.045,38.737
		c10.681,10.681,24.706,16.02,38.737,16.02c14.028,0,28.059-5.341,38.738-16.02c21.36-21.359,21.36-56.114,0-77.473
		C131.094,337.518,96.34,337.516,74.981,358.876z"/>
	<path style="fill:#01AEDB;" d="M121.655,58.266c-14.633,0-28.39,5.699-38.737,16.045c-21.36,21.359-21.36,56.113,0,77.474
		c10.68,10.68,24.709,16.019,38.737,16.019c14.029,0,28.058-5.34,38.737-16.02c10.348-10.347,16.045-24.104,16.045-38.737
		s-5.699-28.39-16.045-38.737C150.045,63.964,136.288,58.266,121.655,58.266z"/>
</g>
<g>
	<path style="fill:#0C92B6;" d="M512,255.331c0-30.207-24.575-54.782-54.782-54.782c-30.207,0-54.783,24.575-54.783,54.782
		s24.576,54.782,54.783,54.782C487.425,310.113,512,285.537,512,255.331"/>
	<path style="fill:#0C92B6;" d="M437.019,350.939c-21.359-21.359-56.114-21.359-77.474,0c-21.359,21.36-21.359,56.114,0,77.473
		c10.348,10.348,24.104,16.046,38.738,16.046c14.634,0,28.391-5.699,38.737-16.046c10.348-10.347,16.045-24.104,16.045-38.737
		S447.367,361.285,437.019,350.939L437.019,350.939z"/>
	<path style="fill:#0C92B6;" d="M398.282,167.805c14.029,0,28.058-5.34,38.737-16.02c10.348-10.347,16.045-24.104,16.045-38.737
		s-5.699-28.391-16.045-38.737c-10.347-10.348-24.104-16.045-38.738-16.045c-14.633,0-28.39,5.699-38.737,16.045
		c-21.36,21.359-21.36,56.113,0,77.474C370.226,162.466,384.253,167.805,398.282,167.805z"/>
</g>
</svg>